<svg width="1366" height="3057" viewBox="0 0 1366 3057" fill="none" xmlns="http://www.w3.org/2000/svg">
<path d="M1261.29 83.5212C1261.7 83.5212 1262.04 83.6599 1262.32 83.9372C1262.59 84.2146 1262.73 84.5532 1262.73 84.9532C1262.73 85.1826 1262.69 85.4199 1262.62 85.6652C1262.55 85.9052 1262.44 86.1986 1262.28 86.5452L1261.06 89.3452H1259.68L1260.45 86.1372C1260.05 85.8599 1259.85 85.4626 1259.85 84.9452C1259.85 84.5452 1259.99 84.2092 1260.27 83.9372C1260.55 83.6599 1260.89 83.5212 1261.29 83.5212ZM1261.29 78.0172C1261.7 78.0172 1262.04 78.1586 1262.32 78.4412C1262.59 78.7186 1262.73 79.0546 1262.73 79.4492C1262.73 79.8439 1262.59 80.1852 1262.32 80.4732C1262.04 80.7559 1261.7 80.8972 1261.29 80.8972C1260.89 80.8972 1260.55 80.7559 1260.27 80.4732C1259.99 80.1852 1259.85 79.8439 1259.85 79.4492C1259.85 79.1879 1259.92 78.9479 1260.04 78.7292C1260.17 78.5106 1260.35 78.3372 1260.56 78.2092C1260.78 78.0812 1261.03 78.0172 1261.29 78.0172Z" fill="#747474"/>
<path d="M1281.29 83.5212C1281.7 83.5212 1282.04 83.6599 1282.32 83.9372C1282.59 84.2146 1282.73 84.5532 1282.73 84.9532C1282.73 85.1826 1282.69 85.4199 1282.62 85.6652C1282.55 85.9052 1282.44 86.1986 1282.28 86.5452L1281.06 89.3452H1279.68L1280.45 86.1372C1280.05 85.8599 1279.85 85.4626 1279.85 84.9452C1279.85 84.5452 1279.99 84.2092 1280.27 83.9372C1280.55 83.6599 1280.89 83.5212 1281.29 83.5212ZM1281.29 78.0172C1281.7 78.0172 1282.04 78.1586 1282.32 78.4412C1282.59 78.7186 1282.73 79.0546 1282.73 79.4492C1282.73 79.8439 1282.59 80.1852 1282.32 80.4732C1282.04 80.7559 1281.7 80.8972 1281.29 80.8972C1280.89 80.8972 1280.55 80.7559 1280.27 80.4732C1279.99 80.1852 1279.85 79.8439 1279.85 79.4492C1279.85 79.1879 1279.92 78.9479 1280.04 78.7292C1280.17 78.5106 1280.35 78.3372 1280.56 78.2092C1280.78 78.0812 1281.03 78.0172 1281.29 78.0172Z" fill="#747474"/>
<path d="M1301.29 83.5212C1301.7 83.5212 1302.04 83.6599 1302.32 83.9372C1302.59 84.2146 1302.73 84.5532 1302.73 84.9532C1302.73 85.1826 1302.69 85.4199 1302.62 85.6652C1302.55 85.9052 1302.44 86.1986 1302.28 86.5452L1301.06 89.3452H1299.68L1300.45 86.1372C1300.05 85.8599 1299.85 85.4626 1299.85 84.9452C1299.85 84.5452 1299.99 84.2092 1300.27 83.9372C1300.55 83.6599 1300.89 83.5212 1301.29 83.5212ZM1301.29 78.0172C1301.7 78.0172 1302.04 78.1586 1302.32 78.4412C1302.59 78.7186 1302.73 79.0546 1302.73 79.4492C1302.73 79.8439 1302.59 80.1852 1302.32 80.4732C1302.04 80.7559 1301.7 80.8972 1301.29 80.8972C1300.89 80.8972 1300.55 80.7559 1300.27 80.4732C1299.99 80.1852 1299.85 79.8439 1299.85 79.4492C1299.85 79.1879 1299.92 78.9479 1300.04 78.7292C1300.17 78.5106 1300.35 78.3372 1300.56 78.2092C1300.78 78.0812 1301.03 78.0172 1301.29 78.0172Z" fill="#747474"/>
<path d="M1321.29 83.5212C1321.7 83.5212 1322.04 83.6599 1322.32 83.9372C1322.59 84.2146 1322.73 84.5532 1322.73 84.9532C1322.73 85.1826 1322.69 85.4199 1322.62 85.6652C1322.55 85.9052 1322.44 86.1986 1322.28 86.5452L1321.06 89.3452H1319.68L1320.45 86.1372C1320.05 85.8599 1319.85 85.4626 1319.85 84.9452C1319.85 84.5452 1319.99 84.2092 1320.27 83.9372C1320.55 83.6599 1320.89 83.5212 1321.29 83.5212ZM1321.29 78.0172C1321.7 78.0172 1322.04 78.1586 1322.32 78.4412C1322.59 78.7186 1322.73 79.0546 1322.73 79.4492C1322.73 79.8439 1322.59 80.1852 1322.32 80.4732C1322.04 80.7559 1321.7 80.8972 1321.29 80.8972C1320.89 80.8972 1320.55 80.7559 1320.27 80.4732C1319.99 80.1852 1319.85 79.8439 1319.85 79.4492C1319.85 79.1879 1319.92 78.9479 1320.04 78.7292C1320.17 78.5106 1320.35 78.3372 1320.56 78.2092C1320.78 78.0812 1321.03 78.0172 1321.29 78.0172Z" fill="#747474"/>
<path d="M1261.29 102.521C1261.7 102.521 1262.04 102.66 1262.32 102.937C1262.59 103.215 1262.73 103.553 1262.73 103.953C1262.73 104.183 1262.69 104.42 1262.62 104.665C1262.55 104.905 1262.44 105.199 1262.28 105.545L1261.06 108.345H1259.68L1260.45 105.137C1260.05 104.86 1259.85 104.463 1259.85 103.945C1259.85 103.545 1259.99 103.209 1260.27 102.937C1260.55 102.66 1260.89 102.521 1261.29 102.521ZM1261.29 97.0172C1261.7 97.0172 1262.04 97.1586 1262.32 97.4412C1262.59 97.7186 1262.73 98.0546 1262.73 98.4492C1262.73 98.8439 1262.59 99.1852 1262.32 99.4732C1262.04 99.7559 1261.7 99.8972 1261.29 99.8972C1260.89 99.8972 1260.55 99.7559 1260.27 99.4732C1259.99 99.1852 1259.85 98.8439 1259.85 98.4492C1259.85 98.1879 1259.92 97.9479 1260.04 97.7292C1260.17 97.5106 1260.35 97.3372 1260.56 97.2092C1260.78 97.0812 1261.03 97.0172 1261.29 97.0172Z" fill="#747474"/>
<path d="M1281.29 102.521C1281.7 102.521 1282.04 102.66 1282.32 102.937C1282.59 103.215 1282.73 103.553 1282.73 103.953C1282.73 104.183 1282.69 104.42 1282.62 104.665C1282.55 104.905 1282.44 105.199 1282.28 105.545L1281.06 108.345H1279.68L1280.45 105.137C1280.05 104.86 1279.85 104.463 1279.85 103.945C1279.85 103.545 1279.99 103.209 1280.27 102.937C1280.55 102.66 1280.89 102.521 1281.29 102.521ZM1281.29 97.0172C1281.7 97.0172 1282.04 97.1586 1282.32 97.4412C1282.59 97.7186 1282.73 98.0546 1282.73 98.4492C1282.73 98.8439 1282.59 99.1852 1282.32 99.4732C1282.04 99.7559 1281.7 99.8972 1281.29 99.8972C1280.89 99.8972 1280.55 99.7559 1280.27 99.4732C1279.99 99.1852 1279.85 98.8439 1279.85 98.4492C1279.85 98.1879 1279.92 97.9479 1280.04 97.7292C1280.17 97.5106 1280.35 97.3372 1280.56 97.2092C1280.78 97.0812 1281.03 97.0172 1281.29 97.0172Z" fill="#747474"/>
<path d="M1301.29 102.521C1301.7 102.521 1302.04 102.66 1302.32 102.937C1302.59 103.215 1302.73 103.553 1302.73 103.953C1302.73 104.183 1302.69 104.42 1302.62 104.665C1302.55 104.905 1302.44 105.199 1302.28 105.545L1301.06 108.345H1299.68L1300.45 105.137C1300.05 104.86 1299.85 104.463 1299.85 103.945C1299.85 103.545 1299.99 103.209 1300.27 102.937C1300.55 102.66 1300.89 102.521 1301.29 102.521ZM1301.29 97.0172C1301.7 97.0172 1302.04 97.1586 1302.32 97.4412C1302.59 97.7186 1302.73 98.0546 1302.73 98.4492C1302.73 98.8439 1302.59 99.1852 1302.32 99.4732C1302.04 99.7559 1301.7 99.8972 1301.29 99.8972C1300.89 99.8972 1300.55 99.7559 1300.27 99.4732C1299.99 99.1852 1299.85 98.8439 1299.85 98.4492C1299.85 98.1879 1299.92 97.9479 1300.04 97.7292C1300.17 97.5106 1300.35 97.3372 1300.56 97.2092C1300.78 97.0812 1301.03 97.0172 1301.29 97.0172Z" fill="#747474"/>
<path d="M1321.29 102.521C1321.7 102.521 1322.04 102.66 1322.32 102.937C1322.59 103.215 1322.73 103.553 1322.73 103.953C1322.73 104.183 1322.69 104.42 1322.62 104.665C1322.55 104.905 1322.44 105.199 1322.28 105.545L1321.06 108.345H1319.68L1320.45 105.137C1320.05 104.86 1319.85 104.463 1319.85 103.945C1319.85 103.545 1319.99 103.209 1320.27 102.937C1320.55 102.66 1320.89 102.521 1321.29 102.521ZM1321.29 97.0172C1321.7 97.0172 1322.04 97.1586 1322.32 97.4412C1322.59 97.7186 1322.73 98.0546 1322.73 98.4492C1322.73 98.8439 1322.59 99.1852 1322.32 99.4732C1322.04 99.7559 1321.7 99.8972 1321.29 99.8972C1320.89 99.8972 1320.55 99.7559 1320.27 99.4732C1319.99 99.1852 1319.85 98.8439 1319.85 98.4492C1319.85 98.1879 1319.92 97.9479 1320.04 97.7292C1320.17 97.5106 1320.35 97.3372 1320.56 97.2092C1320.78 97.0812 1321.03 97.0172 1321.29 97.0172Z" fill="#747474"/>
<path d="M81.2918 284.73C81.7025 284.73 82.0438 284.869 82.3158 285.146C82.5932 285.423 82.7318 285.762 82.7318 286.162C82.7318 286.391 82.6945 286.629 82.6198 286.874C82.5505 287.114 82.4385 287.407 82.2838 287.754L81.0598 290.554H79.6838L80.4518 287.346C80.0518 287.069 79.8518 286.671 79.8518 286.154C79.8518 285.754 79.9905 285.418 80.2678 285.146C80.5452 284.869 80.8865 284.73 81.2918 284.73ZM81.2918 279.226C81.7025 279.226 82.0438 279.367 82.3158 279.65C82.5932 279.927 82.7318 280.263 82.7318 280.658C82.7318 281.053 82.5932 281.394 82.3158 281.682C82.0438 281.965 81.7025 282.106 81.2918 282.106C80.8865 282.106 80.5452 281.965 80.2678 281.682C79.9905 281.394 79.8518 281.053 79.8518 280.658C79.8518 280.397 79.9158 280.157 80.0438 279.938C80.1718 279.719 80.3452 279.546 80.5638 279.418C80.7825 279.29 81.0252 279.226 81.2918 279.226Z" fill="#747474"/>
<path d="M101.292 284.73C101.702 284.73 102.044 284.869 102.316 285.146C102.593 285.423 102.732 285.762 102.732 286.162C102.732 286.391 102.694 286.629 102.62 286.874C102.55 287.114 102.438 287.407 102.284 287.754L101.06 290.554H99.6838L100.452 287.346C100.052 287.069 99.8518 286.671 99.8518 286.154C99.8518 285.754 99.9905 285.418 100.268 285.146C100.545 284.869 100.886 284.73 101.292 284.73ZM101.292 279.226C101.702 279.226 102.044 279.367 102.316 279.65C102.593 279.927 102.732 280.263 102.732 280.658C102.732 281.053 102.593 281.394 102.316 281.682C102.044 281.965 101.702 282.106 101.292 282.106C100.886 282.106 100.545 281.965 100.268 281.682C99.9905 281.394 99.8518 281.053 99.8518 280.658C99.8518 280.397 99.9158 280.157 100.044 279.938C100.172 279.719 100.345 279.546 100.564 279.418C100.782 279.29 101.025 279.226 101.292 279.226Z" fill="#747474"/>
<path d="M121.292 284.73C121.702 284.73 122.044 284.869 122.316 285.146C122.593 285.423 122.732 285.762 122.732 286.162C122.732 286.391 122.694 286.629 122.62 286.874C122.55 287.114 122.438 287.407 122.284 287.754L121.06 290.554H119.684L120.452 287.346C120.052 287.069 119.852 286.671 119.852 286.154C119.852 285.754 119.99 285.418 120.268 285.146C120.545 284.869 120.886 284.73 121.292 284.73ZM121.292 279.226C121.702 279.226 122.044 279.367 122.316 279.65C122.593 279.927 122.732 280.263 122.732 280.658C122.732 281.053 122.593 281.394 122.316 281.682C122.044 281.965 121.702 282.106 121.292 282.106C120.886 282.106 120.545 281.965 120.268 281.682C119.99 281.394 119.852 281.053 119.852 280.658C119.852 280.397 119.916 280.157 120.044 279.938C120.172 279.719 120.345 279.546 120.564 279.418C120.782 279.29 121.025 279.226 121.292 279.226Z" fill="#747474"/>
<path d="M141.292 284.73C141.702 284.73 142.044 284.869 142.316 285.146C142.593 285.423 142.732 285.762 142.732 286.162C142.732 286.391 142.694 286.629 142.62 286.874C142.55 287.114 142.438 287.407 142.284 287.754L141.06 290.554H139.684L140.452 287.346C140.052 287.069 139.852 286.671 139.852 286.154C139.852 285.754 139.99 285.418 140.268 285.146C140.545 284.869 140.886 284.73 141.292 284.73ZM141.292 279.226C141.702 279.226 142.044 279.367 142.316 279.65C142.593 279.927 142.732 280.263 142.732 280.658C142.732 281.053 142.593 281.394 142.316 281.682C142.044 281.965 141.702 282.106 141.292 282.106C140.886 282.106 140.545 281.965 140.268 281.682C139.99 281.394 139.852 281.053 139.852 280.658C139.852 280.397 139.916 280.157 140.044 279.938C140.172 279.719 140.345 279.546 140.564 279.418C140.782 279.29 141.025 279.226 141.292 279.226Z" fill="#747474"/>
<path d="M81.2918 303.73C81.7025 303.73 82.0438 303.869 82.3158 304.146C82.5932 304.423 82.7318 304.762 82.7318 305.162C82.7318 305.391 82.6945 305.629 82.6198 305.874C82.5505 306.114 82.4385 306.407 82.2838 306.754L81.0598 309.554H79.6838L80.4518 306.346C80.0518 306.069 79.8518 305.671 79.8518 305.154C79.8518 304.754 79.9905 304.418 80.2678 304.146C80.5452 303.869 80.8865 303.73 81.2918 303.73ZM81.2918 298.226C81.7025 298.226 82.0438 298.367 82.3158 298.65C82.5932 298.927 82.7318 299.263 82.7318 299.658C82.7318 300.053 82.5932 300.394 82.3158 300.682C82.0438 300.965 81.7025 301.106 81.2918 301.106C80.8865 301.106 80.5452 300.965 80.2678 300.682C79.9905 300.394 79.8518 300.053 79.8518 299.658C79.8518 299.397 79.9158 299.157 80.0438 298.938C80.1718 298.719 80.3452 298.546 80.5638 298.418C80.7825 298.29 81.0252 298.226 81.2918 298.226Z" fill="#747474"/>
<path d="M101.292 303.73C101.702 303.73 102.044 303.869 102.316 304.146C102.593 304.423 102.732 304.762 102.732 305.162C102.732 305.391 102.694 305.629 102.62 305.874C102.55 306.114 102.438 306.407 102.284 306.754L101.06 309.554H99.6838L100.452 306.346C100.052 306.069 99.8518 305.671 99.8518 305.154C99.8518 304.754 99.9905 304.418 100.268 304.146C100.545 303.869 100.886 303.73 101.292 303.73ZM101.292 298.226C101.702 298.226 102.044 298.367 102.316 298.65C102.593 298.927 102.732 299.263 102.732 299.658C102.732 300.053 102.593 300.394 102.316 300.682C102.044 300.965 101.702 301.106 101.292 301.106C100.886 301.106 100.545 300.965 100.268 300.682C99.9905 300.394 99.8518 300.053 99.8518 299.658C99.8518 299.397 99.9158 299.157 100.044 298.938C100.172 298.719 100.345 298.546 100.564 298.418C100.782 298.29 101.025 298.226 101.292 298.226Z" fill="#747474"/>
<path d="M121.292 303.73C121.702 303.73 122.044 303.869 122.316 304.146C122.593 304.423 122.732 304.762 122.732 305.162C122.732 305.391 122.694 305.629 122.62 305.874C122.55 306.114 122.438 306.407 122.284 306.754L121.06 309.554H119.684L120.452 306.346C120.052 306.069 119.852 305.671 119.852 305.154C119.852 304.754 119.99 304.418 120.268 304.146C120.545 303.869 120.886 303.73 121.292 303.73ZM121.292 298.226C121.702 298.226 122.044 298.367 122.316 298.65C122.593 298.927 122.732 299.263 122.732 299.658C122.732 300.053 122.593 300.394 122.316 300.682C122.044 300.965 121.702 301.106 121.292 301.106C120.886 301.106 120.545 300.965 120.268 300.682C119.99 300.394 119.852 300.053 119.852 299.658C119.852 299.397 119.916 299.157 120.044 298.938C120.172 298.719 120.345 298.546 120.564 298.418C120.782 298.29 121.025 298.226 121.292 298.226Z" fill="#747474"/>
<path d="M141.292 303.73C141.702 303.73 142.044 303.869 142.316 304.146C142.593 304.423 142.732 304.762 142.732 305.162C142.732 305.391 142.694 305.629 142.62 305.874C142.55 306.114 142.438 306.407 142.284 306.754L141.06 309.554H139.684L140.452 306.346C140.052 306.069 139.852 305.671 139.852 305.154C139.852 304.754 139.99 304.418 140.268 304.146C140.545 303.869 140.886 303.73 141.292 303.73ZM141.292 298.226C141.702 298.226 142.044 298.367 142.316 298.65C142.593 298.927 142.732 299.263 142.732 299.658C142.732 300.053 142.593 300.394 142.316 300.682C142.044 300.965 141.702 301.106 141.292 301.106C140.886 301.106 140.545 300.965 140.268 300.682C139.99 300.394 139.852 300.053 139.852 299.658C139.852 299.397 139.916 299.157 140.044 298.938C140.172 298.719 140.345 298.546 140.564 298.418C140.782 298.29 141.025 298.226 141.292 298.226Z" fill="#747474"/>
<path d="M13.292 1232.16C13.7027 1232.16 14.044 1232.3 14.316 1232.58C14.5933 1232.85 14.732 1233.19 14.732 1233.59C14.732 1233.82 14.6947 1234.06 14.62 1234.31C14.5507 1234.55 14.4387 1234.84 14.284 1235.19L13.06 1237.99H11.684L12.452 1234.78C12.052 1234.5 11.852 1234.1 11.852 1233.59C11.852 1233.19 11.9907 1232.85 12.268 1232.58C12.5453 1232.3 12.8867 1232.16 13.292 1232.16ZM13.292 1226.66C13.7027 1226.66 14.044 1226.8 14.316 1227.08C14.5933 1227.36 14.732 1227.69 14.732 1228.09C14.732 1228.48 14.5933 1228.83 14.316 1229.11C14.044 1229.4 13.7027 1229.54 13.292 1229.54C12.8867 1229.54 12.5453 1229.4 12.268 1229.11C11.9907 1228.83 11.852 1228.48 11.852 1228.09C11.852 1227.83 11.916 1227.59 12.044 1227.37C12.172 1227.15 12.3453 1226.98 12.564 1226.85C12.7827 1226.72 13.0253 1226.66 13.292 1226.66Z" fill="#747474"/>
<path d="M33.292 1232.16C33.7027 1232.16 34.044 1232.3 34.316 1232.58C34.5933 1232.85 34.732 1233.19 34.732 1233.59C34.732 1233.82 34.6947 1234.06 34.62 1234.31C34.5507 1234.55 34.4387 1234.84 34.284 1235.19L33.06 1237.99H31.684L32.452 1234.78C32.052 1234.5 31.852 1234.1 31.852 1233.59C31.852 1233.19 31.9907 1232.85 32.268 1232.58C32.5453 1232.3 32.8867 1232.16 33.292 1232.16ZM33.292 1226.66C33.7027 1226.66 34.044 1226.8 34.316 1227.08C34.5933 1227.36 34.732 1227.69 34.732 1228.09C34.732 1228.48 34.5933 1228.83 34.316 1229.11C34.044 1229.4 33.7027 1229.54 33.292 1229.54C32.8867 1229.54 32.5453 1229.4 32.268 1229.11C31.9907 1228.83 31.852 1228.48 31.852 1228.09C31.852 1227.83 31.916 1227.59 32.044 1227.37C32.172 1227.15 32.3453 1226.98 32.564 1226.85C32.7827 1226.72 33.0253 1226.66 33.292 1226.66Z" fill="#747474"/>
<path d="M53.292 1232.16C53.7027 1232.16 54.044 1232.3 54.316 1232.58C54.5933 1232.85 54.732 1233.19 54.732 1233.59C54.732 1233.82 54.6947 1234.06 54.62 1234.31C54.5507 1234.55 54.4387 1234.84 54.284 1235.19L53.06 1237.99H51.684L52.452 1234.78C52.052 1234.5 51.852 1234.1 51.852 1233.59C51.852 1233.19 51.9907 1232.85 52.268 1232.58C52.5453 1232.3 52.8867 1232.16 53.292 1232.16ZM53.292 1226.66C53.7027 1226.66 54.044 1226.8 54.316 1227.08C54.5933 1227.36 54.732 1227.69 54.732 1228.09C54.732 1228.48 54.5933 1228.83 54.316 1229.11C54.044 1229.4 53.7027 1229.54 53.292 1229.54C52.8867 1229.54 52.5453 1229.4 52.268 1229.11C51.9907 1228.83 51.852 1228.48 51.852 1228.09C51.852 1227.83 51.916 1227.59 52.044 1227.37C52.172 1227.15 52.3453 1226.98 52.564 1226.85C52.7827 1226.72 53.0253 1226.66 53.292 1226.66Z" fill="#747474"/>
<path d="M13.292 1251.16C13.7027 1251.16 14.044 1251.3 14.316 1251.58C14.5933 1251.85 14.732 1252.19 14.732 1252.59C14.732 1252.82 14.6947 1253.06 14.62 1253.31C14.5507 1253.55 14.4387 1253.84 14.284 1254.19L13.06 1256.99H11.684L12.452 1253.78C12.052 1253.5 11.852 1253.1 11.852 1252.59C11.852 1252.19 11.9907 1251.85 12.268 1251.58C12.5453 1251.3 12.8867 1251.16 13.292 1251.16ZM13.292 1245.66C13.7027 1245.66 14.044 1245.8 14.316 1246.08C14.5933 1246.36 14.732 1246.69 14.732 1247.09C14.732 1247.48 14.5933 1247.83 14.316 1248.11C14.044 1248.4 13.7027 1248.54 13.292 1248.54C12.8867 1248.54 12.5453 1248.4 12.268 1248.11C11.9907 1247.83 11.852 1247.48 11.852 1247.09C11.852 1246.83 11.916 1246.59 12.044 1246.37C12.172 1246.15 12.3453 1245.98 12.564 1245.85C12.7827 1245.72 13.0253 1245.66 13.292 1245.66Z" fill="#747474"/>
<path d="M33.292 1251.16C33.7027 1251.16 34.044 1251.3 34.316 1251.58C34.5933 1251.85 34.732 1252.19 34.732 1252.59C34.732 1252.82 34.6947 1253.06 34.62 1253.31C34.5507 1253.55 34.4387 1253.84 34.284 1254.19L33.06 1256.99H31.684L32.452 1253.78C32.052 1253.5 31.852 1253.1 31.852 1252.59C31.852 1252.19 31.9907 1251.85 32.268 1251.58C32.5453 1251.3 32.8867 1251.16 33.292 1251.16ZM33.292 1245.66C33.7027 1245.66 34.044 1245.8 34.316 1246.08C34.5933 1246.36 34.732 1246.69 34.732 1247.09C34.732 1247.48 34.5933 1247.83 34.316 1248.11C34.044 1248.4 33.7027 1248.54 33.292 1248.54C32.8867 1248.54 32.5453 1248.4 32.268 1248.11C31.9907 1247.83 31.852 1247.48 31.852 1247.09C31.852 1246.83 31.916 1246.59 32.044 1246.37C32.172 1246.15 32.3453 1245.98 32.564 1245.85C32.7827 1245.72 33.0253 1245.66 33.292 1245.66Z" fill="#747474"/>
<path d="M53.292 1251.16C53.7027 1251.16 54.044 1251.3 54.316 1251.58C54.5933 1251.85 54.732 1252.19 54.732 1252.59C54.732 1252.82 54.6947 1253.06 54.62 1253.31C54.5507 1253.55 54.4387 1253.84 54.284 1254.19L53.06 1256.99H51.684L52.452 1253.78C52.052 1253.5 51.852 1253.1 51.852 1252.59C51.852 1252.19 51.9907 1251.85 52.268 1251.58C52.5453 1251.3 52.8867 1251.16 53.292 1251.16ZM53.292 1245.66C53.7027 1245.66 54.044 1245.8 54.316 1246.08C54.5933 1246.36 54.732 1246.69 54.732 1247.09C54.732 1247.48 54.5933 1247.83 54.316 1248.11C54.044 1248.4 53.7027 1248.54 53.292 1248.54C52.8867 1248.54 52.5453 1248.4 52.268 1248.11C51.9907 1247.83 51.852 1247.48 51.852 1247.09C51.852 1246.83 51.916 1246.59 52.044 1246.37C52.172 1246.15 52.3453 1245.98 52.564 1245.85C52.7827 1245.72 53.0253 1245.66 53.292 1245.66Z" fill="#747474"/>
<g clip-path="url(#clip0_97_368)">
<path d="M207.965 1916.37C208.765 1916.18 209.511 1916.29 210.204 1916.69C210.907 1917.09 211.376 1917.68 211.611 1918.44C211.746 1918.88 211.813 1919.35 211.812 1919.85C211.818 1920.35 211.772 1920.96 211.675 1921.69L210.939 1927.6L208.261 1928.24L207.869 1921.75C206.927 1921.4 206.304 1920.74 206 1919.75C205.764 1918.98 205.837 1918.28 206.217 1917.63C206.593 1916.97 207.176 1916.55 207.965 1916.37ZM204.728 1905.84C205.528 1905.66 206.275 1905.77 206.971 1906.19C207.674 1906.59 208.142 1907.17 208.374 1907.92C208.606 1908.68 208.537 1909.39 208.166 1910.07C207.803 1910.73 207.222 1911.16 206.422 1911.35C205.633 1911.54 204.885 1911.42 204.179 1911.01C203.47 1910.58 202.999 1910 202.767 1909.24C202.613 1908.74 202.597 1908.25 202.717 1907.78C202.838 1907.3 203.073 1906.89 203.424 1906.54C203.774 1906.2 204.209 1905.97 204.728 1905.84Z" fill="#747474"/>
<path d="M227.433 1911.78C228.232 1911.59 228.978 1911.7 229.671 1912.11C230.374 1912.51 230.843 1913.09 231.079 1913.86C231.213 1914.3 231.28 1914.77 231.279 1915.27C231.285 1915.76 231.24 1916.37 231.143 1917.11L230.407 1923.02L227.728 1923.65L227.336 1917.17C226.394 1916.82 225.771 1916.15 225.467 1915.16C225.232 1914.4 225.304 1913.69 225.684 1913.05C226.061 1912.39 226.644 1911.97 227.433 1911.78ZM224.196 1901.26C224.995 1901.07 225.743 1901.19 226.439 1901.6C227.142 1902 227.609 1902.58 227.841 1903.34C228.073 1904.09 228.004 1904.81 227.634 1905.49C227.27 1906.15 226.689 1906.58 225.89 1906.77C225.1 1906.95 224.353 1906.84 223.647 1906.42C222.937 1906 222.467 1905.41 222.235 1904.66C222.081 1904.16 222.064 1903.67 222.185 1903.19C222.305 1902.72 222.541 1902.31 222.891 1901.96C223.242 1901.62 223.677 1901.38 224.196 1901.26Z" fill="#747474"/>
<path d="M246.9 1907.2C247.7 1907.01 248.446 1907.12 249.139 1907.52C249.842 1907.93 250.311 1908.51 250.546 1909.27C250.681 1909.71 250.748 1910.18 250.747 1910.69C250.753 1911.18 250.707 1911.79 250.61 1912.52L249.874 1918.44L247.196 1919.07L246.804 1912.58C245.862 1912.24 245.239 1911.57 244.935 1910.58C244.699 1909.81 244.772 1909.11 245.152 1908.46C245.528 1907.8 246.111 1907.38 246.9 1907.2ZM243.663 1896.68C244.463 1896.49 245.21 1896.6 245.906 1897.02C246.609 1897.42 247.077 1898 247.309 1898.75C247.541 1899.51 247.472 1900.22 247.101 1900.9C246.738 1901.57 246.157 1901.99 245.357 1902.18C244.568 1902.37 243.82 1902.25 243.114 1901.84C242.405 1901.42 241.934 1900.83 241.702 1900.07C241.548 1899.57 241.532 1899.09 241.652 1898.61C241.773 1898.13 242.008 1897.72 242.359 1897.38C242.709 1897.03 243.144 1896.8 243.663 1896.68Z" fill="#747474"/>
<path d="M266.368 1902.61C267.167 1902.42 267.914 1902.53 268.606 1902.94C269.309 1903.34 269.778 1903.93 270.014 1904.69C270.148 1905.13 270.215 1905.6 270.214 1906.1C270.22 1906.59 270.175 1907.2 270.078 1907.94L269.342 1913.85L266.663 1914.48L266.271 1908C265.33 1907.65 264.706 1906.98 264.402 1905.99C264.167 1905.23 264.239 1904.52 264.619 1903.88C264.996 1903.22 265.579 1902.8 266.368 1902.61ZM263.131 1892.09C263.93 1891.9 264.678 1892.02 265.374 1892.43C266.077 1892.84 266.544 1893.41 266.776 1894.17C267.008 1894.92 266.939 1895.64 266.569 1896.32C266.205 1896.98 265.624 1897.41 264.825 1897.6C264.036 1897.78 263.288 1897.67 262.582 1897.26C261.872 1896.83 261.402 1896.24 261.17 1895.49C261.016 1894.99 260.999 1894.5 261.12 1894.02C261.24 1893.55 261.476 1893.14 261.826 1892.79C262.177 1892.45 262.612 1892.21 263.131 1892.09Z" fill="#747474"/>
</g>
<g clip-path="url(#clip1_97_368)">
<path d="M213.553 1934.53C214.353 1934.34 215.099 1934.45 215.791 1934.85C216.494 1935.25 216.963 1935.84 217.199 1936.6C217.334 1937.04 217.4 1937.51 217.399 1938.01C217.406 1938.51 217.36 1939.12 217.263 1939.85L216.527 1945.76L213.848 1946.4L213.456 1939.91C212.515 1939.56 211.892 1938.9 211.587 1937.91C211.352 1937.14 211.424 1936.44 211.804 1935.79C212.181 1935.13 212.764 1934.71 213.553 1934.53ZM210.316 1924C211.115 1923.82 211.863 1923.93 212.559 1924.34C213.262 1924.75 213.729 1925.33 213.961 1926.08C214.193 1926.84 214.124 1927.55 213.754 1928.23C213.391 1928.89 212.809 1929.32 212.01 1929.51C211.221 1929.69 210.473 1929.58 209.767 1929.17C209.058 1928.74 208.587 1928.16 208.355 1927.4C208.201 1926.9 208.184 1926.41 208.305 1925.94C208.426 1925.46 208.661 1925.05 209.011 1924.7C209.362 1924.36 209.797 1924.13 210.316 1924Z" fill="#747474"/>
<path d="M233.021 1929.94C233.82 1929.75 234.566 1929.86 235.259 1930.27C235.962 1930.67 236.431 1931.25 236.666 1932.02C236.801 1932.46 236.868 1932.93 236.867 1933.43C236.873 1933.92 236.828 1934.53 236.73 1935.27L235.994 1941.18L233.316 1941.81L232.924 1935.33C231.982 1934.98 231.359 1934.31 231.055 1933.32C230.82 1932.56 230.892 1931.85 231.272 1931.21C231.649 1930.55 232.231 1930.13 233.021 1929.94ZM229.783 1919.42C230.583 1919.23 231.33 1919.35 232.026 1919.76C232.729 1920.16 233.197 1920.74 233.429 1921.5C233.661 1922.25 233.592 1922.97 233.221 1923.64C232.858 1924.31 232.277 1924.74 231.477 1924.92C230.688 1925.11 229.941 1925 229.234 1924.58C228.525 1924.16 228.054 1923.57 227.822 1922.82C227.669 1922.32 227.652 1921.83 227.773 1921.35C227.893 1920.88 228.129 1920.47 228.479 1920.12C228.829 1919.78 229.264 1919.54 229.783 1919.42Z" fill="#747474"/>
<path d="M252.488 1925.36C253.288 1925.17 254.034 1925.28 254.726 1925.68C255.429 1926.09 255.898 1926.67 256.134 1927.43C256.269 1927.87 256.335 1928.34 256.334 1928.85C256.341 1929.34 256.295 1929.95 256.198 1930.68L255.462 1936.6L252.783 1937.23L252.391 1930.74C251.45 1930.4 250.827 1929.73 250.522 1928.74C250.287 1927.97 250.359 1927.27 250.739 1926.62C251.116 1925.96 251.699 1925.54 252.488 1925.36ZM249.251 1914.84C250.05 1914.65 250.798 1914.76 251.494 1915.18C252.197 1915.58 252.664 1916.16 252.896 1916.91C253.129 1917.67 253.059 1918.38 252.689 1919.06C252.326 1919.73 251.744 1920.15 250.945 1920.34C250.156 1920.53 249.408 1920.41 248.702 1920C247.993 1919.58 247.522 1918.99 247.29 1918.23C247.136 1917.73 247.119 1917.25 247.24 1916.77C247.361 1916.29 247.596 1915.88 247.947 1915.54C248.297 1915.19 248.732 1914.96 249.251 1914.84Z" fill="#747474"/>
<path d="M271.956 1920.77C272.755 1920.58 273.501 1920.69 274.194 1921.1C274.897 1921.5 275.366 1922.09 275.601 1922.85C275.736 1923.29 275.803 1923.76 275.802 1924.26C275.808 1924.75 275.763 1925.36 275.665 1926.1L274.929 1932.01L272.251 1932.64L271.859 1926.16C270.917 1925.81 270.294 1925.14 269.99 1924.15C269.755 1923.39 269.827 1922.68 270.207 1922.04C270.584 1921.38 271.167 1920.96 271.956 1920.77ZM268.718 1910.25C269.518 1910.06 270.265 1910.18 270.961 1910.59C271.664 1911 272.132 1911.57 272.364 1912.33C272.596 1913.08 272.527 1913.8 272.156 1914.48C271.793 1915.14 271.212 1915.57 270.412 1915.76C269.623 1915.94 268.876 1915.83 268.169 1915.42C267.46 1914.99 266.989 1914.4 266.757 1913.65C266.604 1913.15 266.587 1912.66 266.708 1912.18C266.828 1911.71 267.064 1911.3 267.414 1910.95C267.764 1910.61 268.199 1910.37 268.718 1910.25Z" fill="#747474"/>
</g>
<g clip-path="url(#clip2_97_368)">
<path d="M102.556 2648.03C103.355 2647.84 104.101 2647.95 104.794 2648.35C105.497 2648.76 105.966 2649.34 106.201 2650.1C106.336 2650.54 106.403 2651.01 106.402 2651.52C106.408 2652.01 106.363 2652.62 106.266 2653.35L105.53 2659.27L102.851 2659.9L102.459 2653.41C101.517 2653.07 100.894 2652.4 100.59 2651.41C100.355 2650.64 100.427 2649.94 100.807 2649.29C101.184 2648.63 101.767 2648.21 102.556 2648.03ZM99.3184 2637.51C100.118 2637.32 100.866 2637.43 101.561 2637.85C102.264 2638.25 102.732 2638.83 102.964 2639.58C103.196 2640.34 103.127 2641.05 102.756 2641.73C102.393 2642.4 101.812 2642.82 101.012 2643.01C100.223 2643.2 99.4757 2643.08 98.7695 2642.67C98.0602 2642.25 97.5895 2641.66 97.3574 2640.9C97.2037 2640.4 97.1871 2639.92 97.3077 2639.44C97.4282 2638.96 97.6637 2638.55 98.0141 2638.21C98.3645 2637.86 98.7993 2637.63 99.3184 2637.51Z" fill="#747474"/>
<path d="M122.023 2643.44C122.823 2643.25 123.569 2643.36 124.261 2643.77C124.964 2644.17 125.434 2644.76 125.669 2645.52C125.804 2645.96 125.871 2646.43 125.87 2646.93C125.876 2647.42 125.83 2648.04 125.733 2648.77L124.997 2654.68L122.318 2655.31L121.927 2648.83C120.985 2648.48 120.362 2647.81 120.057 2646.83C119.822 2646.06 119.895 2645.35 120.274 2644.71C120.651 2644.05 121.234 2643.63 122.023 2643.44ZM118.786 2632.92C119.585 2632.73 120.333 2632.85 121.029 2633.26C121.732 2633.67 122.199 2634.24 122.432 2635C122.664 2635.75 122.595 2636.47 122.224 2637.15C121.861 2637.81 121.279 2638.24 120.48 2638.43C119.691 2638.61 118.943 2638.5 118.237 2638.09C117.528 2637.66 117.057 2637.07 116.825 2636.32C116.671 2635.82 116.655 2635.33 116.775 2634.85C116.896 2634.38 117.131 2633.97 117.482 2633.62C117.832 2633.28 118.267 2633.04 118.786 2632.92Z" fill="#747474"/>
<path d="M141.491 2638.86C142.29 2638.67 143.036 2638.78 143.729 2639.18C144.432 2639.59 144.901 2640.17 145.136 2640.94C145.271 2641.37 145.338 2641.85 145.337 2642.35C145.343 2642.84 145.298 2643.45 145.201 2644.18L144.465 2650.1L141.786 2650.73L141.394 2644.24C140.452 2643.9 139.829 2643.23 139.525 2642.24C139.29 2641.48 139.362 2640.77 139.742 2640.12C140.119 2639.47 140.702 2639.04 141.491 2638.86ZM138.254 2628.34C139.053 2628.15 139.801 2628.26 140.496 2628.68C141.199 2629.08 141.667 2629.66 141.899 2630.41C142.131 2631.17 142.062 2631.89 141.692 2632.56C141.328 2633.23 140.747 2633.65 139.947 2633.84C139.158 2634.03 138.411 2633.91 137.705 2633.5C136.995 2633.08 136.525 2632.49 136.292 2631.74C136.139 2631.24 136.122 2630.75 136.243 2630.27C136.363 2629.79 136.599 2629.38 136.949 2629.04C137.3 2628.69 137.734 2628.46 138.254 2628.34Z" fill="#747474"/>
<path d="M160.958 2634.27C161.758 2634.09 162.504 2634.19 163.196 2634.6C163.899 2635 164.369 2635.59 164.604 2636.35C164.739 2636.79 164.806 2637.26 164.805 2637.76C164.811 2638.25 164.765 2638.87 164.668 2639.6L163.932 2645.51L161.253 2646.14L160.862 2639.66C159.92 2639.31 159.297 2638.65 158.993 2637.66C158.757 2636.89 158.83 2636.19 159.21 2635.54C159.586 2634.88 160.169 2634.46 160.958 2634.27ZM157.721 2623.75C158.52 2623.57 159.268 2623.68 159.964 2624.09C160.667 2624.5 161.134 2625.08 161.367 2625.83C161.599 2626.58 161.53 2627.3 161.159 2627.98C160.796 2628.64 160.214 2629.07 159.415 2629.26C158.626 2629.44 157.878 2629.33 157.172 2628.92C156.463 2628.49 155.992 2627.91 155.76 2627.15C155.606 2626.65 155.59 2626.16 155.71 2625.69C155.831 2625.21 156.066 2624.8 156.417 2624.45C156.767 2624.11 157.202 2623.88 157.721 2623.75Z" fill="#747474"/>
</g>
<g clip-path="url(#clip3_97_368)">
<path d="M108.143 2666.19C108.943 2666 109.689 2666.11 110.381 2666.51C111.084 2666.92 111.554 2667.5 111.789 2668.26C111.924 2668.7 111.991 2669.17 111.99 2669.68C111.996 2670.17 111.95 2670.78 111.853 2671.51L111.117 2677.43L108.438 2678.06L108.047 2671.57C107.105 2671.23 106.482 2670.56 106.178 2669.57C105.942 2668.8 106.015 2668.1 106.395 2667.45C106.771 2666.79 107.354 2666.37 108.143 2666.19ZM104.906 2655.67C105.705 2655.48 106.453 2655.59 107.149 2656.01C107.852 2656.41 108.319 2656.99 108.552 2657.74C108.784 2658.5 108.715 2659.21 108.344 2659.89C107.981 2660.56 107.399 2660.98 106.6 2661.17C105.811 2661.36 105.063 2661.24 104.357 2660.83C103.648 2660.41 103.177 2659.82 102.945 2659.06C102.791 2658.56 102.775 2658.08 102.895 2657.6C103.016 2657.12 103.251 2656.71 103.602 2656.37C103.952 2656.02 104.387 2655.79 104.906 2655.67Z" fill="#747474"/>
<path d="M127.611 2661.6C128.41 2661.41 129.156 2661.52 129.849 2661.93C130.552 2662.33 131.021 2662.92 131.256 2663.68C131.391 2664.12 131.458 2664.59 131.457 2665.09C131.463 2665.58 131.418 2666.2 131.321 2666.93L130.585 2672.84L127.906 2673.47L127.514 2666.99C126.572 2666.64 125.949 2665.97 125.645 2664.99C125.41 2664.22 125.482 2663.51 125.862 2662.87C126.239 2662.21 126.822 2661.79 127.611 2661.6ZM124.374 2651.08C125.173 2650.89 125.921 2651.01 126.616 2651.42C127.319 2651.83 127.787 2652.4 128.019 2653.16C128.251 2653.91 128.182 2654.63 127.812 2655.31C127.448 2655.97 126.867 2656.4 126.067 2656.59C125.278 2656.77 124.531 2656.66 123.825 2656.25C123.115 2655.82 122.645 2655.23 122.412 2654.48C122.259 2653.98 122.242 2653.49 122.363 2653.01C122.483 2652.54 122.719 2652.13 123.069 2651.78C123.42 2651.44 123.854 2651.2 124.374 2651.08Z" fill="#747474"/>
<path d="M147.078 2657.02C147.878 2656.83 148.624 2656.94 149.317 2657.34C150.02 2657.75 150.489 2658.33 150.724 2659.1C150.859 2659.53 150.926 2660.01 150.925 2660.51C150.931 2661 150.885 2661.61 150.788 2662.34L150.052 2668.26L147.373 2668.89L146.982 2662.4C146.04 2662.06 145.417 2661.39 145.113 2660.4C144.877 2659.64 144.95 2658.93 145.33 2658.28C145.706 2657.63 146.289 2657.2 147.078 2657.02ZM143.841 2646.5C144.641 2646.31 145.388 2646.42 146.084 2646.84C146.787 2647.24 147.255 2647.82 147.487 2648.57C147.719 2649.33 147.65 2650.05 147.279 2650.72C146.916 2651.39 146.334 2651.81 145.535 2652C144.746 2652.19 143.998 2652.07 143.292 2651.66C142.583 2651.24 142.112 2650.65 141.88 2649.89C141.726 2649.4 141.71 2648.91 141.83 2648.43C141.951 2647.95 142.186 2647.54 142.537 2647.2C142.887 2646.85 143.322 2646.62 143.841 2646.5Z" fill="#747474"/>
<path d="M166.546 2652.43C167.345 2652.25 168.091 2652.35 168.784 2652.76C169.487 2653.16 169.956 2653.75 170.191 2654.51C170.326 2654.95 170.393 2655.42 170.392 2655.92C170.398 2656.41 170.353 2657.03 170.256 2657.76L169.52 2663.67L166.841 2664.3L166.449 2657.82C165.507 2657.47 164.884 2656.81 164.58 2655.82C164.345 2655.05 164.417 2654.35 164.797 2653.7C165.174 2653.04 165.757 2652.62 166.546 2652.43ZM163.309 2641.91C164.108 2641.72 164.856 2641.84 165.551 2642.25C166.254 2642.66 166.722 2643.24 166.954 2643.99C167.186 2644.74 167.117 2645.46 166.747 2646.14C166.383 2646.8 165.802 2647.23 165.003 2647.42C164.213 2647.6 163.466 2647.49 162.76 2647.08C162.05 2646.65 161.58 2646.07 161.348 2645.31C161.194 2644.81 161.177 2644.32 161.298 2643.85C161.418 2643.37 161.654 2642.96 162.004 2642.61C162.355 2642.27 162.789 2642.04 163.309 2641.91Z" fill="#747474"/>
</g>
<g clip-path="url(#clip4_97_368)">
<path d="M868.556 2605.16C869.355 2604.97 870.101 2605.08 870.794 2605.49C871.497 2605.89 871.966 2606.47 872.201 2607.24C872.336 2607.68 872.403 2608.15 872.402 2608.65C872.408 2609.14 872.363 2609.75 872.266 2610.49L871.53 2616.4L868.851 2617.03L868.459 2610.55C867.517 2610.2 866.894 2609.53 866.59 2608.54C866.355 2607.78 866.427 2607.07 866.807 2606.43C867.184 2605.77 867.767 2605.35 868.556 2605.16ZM865.319 2594.64C866.118 2594.45 866.866 2594.57 867.561 2594.98C868.264 2595.38 868.732 2595.96 868.964 2596.72C869.196 2597.47 869.127 2598.19 868.757 2598.87C868.393 2599.53 867.812 2599.96 867.012 2600.15C866.223 2600.33 865.476 2600.22 864.77 2599.8C864.06 2599.38 863.59 2598.79 863.357 2598.04C863.204 2597.54 863.187 2597.05 863.308 2596.57C863.428 2596.1 863.664 2595.69 864.014 2595.34C864.365 2595 864.799 2594.76 865.319 2594.64Z" fill="#747474"/>
<path d="M888.023 2600.58C888.823 2600.39 889.569 2600.5 890.262 2600.9C890.965 2601.31 891.434 2601.89 891.669 2602.65C891.804 2603.09 891.871 2603.56 891.87 2604.07C891.876 2604.56 891.83 2605.17 891.733 2605.9L890.997 2611.82L888.319 2612.45L887.927 2605.96C886.985 2605.62 886.362 2604.95 886.058 2603.96C885.822 2603.19 885.895 2602.49 886.275 2601.84C886.651 2601.18 887.234 2600.76 888.023 2600.58ZM884.786 2590.06C885.586 2589.87 886.333 2589.98 887.029 2590.4C887.732 2590.8 888.2 2591.38 888.432 2592.13C888.664 2592.89 888.595 2593.6 888.224 2594.28C887.861 2594.95 887.279 2595.37 886.48 2595.56C885.691 2595.75 884.943 2595.63 884.237 2595.22C883.528 2594.8 883.057 2594.21 882.825 2593.45C882.671 2592.95 882.655 2592.47 882.775 2591.99C882.896 2591.51 883.131 2591.1 883.482 2590.76C883.832 2590.41 884.267 2590.18 884.786 2590.06Z" fill="#747474"/>
<path d="M907.491 2595.99C908.29 2595.8 909.036 2595.91 909.729 2596.32C910.432 2596.72 910.901 2597.31 911.136 2598.07C911.271 2598.51 911.338 2598.98 911.337 2599.48C911.343 2599.97 911.298 2600.58 911.201 2601.32L910.465 2607.23L907.786 2607.86L907.394 2601.38C906.452 2601.03 905.829 2600.36 905.525 2599.37C905.29 2598.61 905.362 2597.9 905.742 2597.26C906.119 2596.6 906.702 2596.18 907.491 2595.99ZM904.254 2585.47C905.053 2585.28 905.801 2585.4 906.496 2585.81C907.2 2586.22 907.667 2586.79 907.899 2587.55C908.131 2588.3 908.062 2589.02 907.692 2589.7C907.328 2590.36 906.747 2590.79 905.948 2590.98C905.158 2591.16 904.411 2591.05 903.705 2590.64C902.995 2590.21 902.525 2589.62 902.293 2588.87C902.139 2588.37 902.122 2587.88 902.243 2587.4C902.363 2586.93 902.599 2586.52 902.949 2586.17C903.3 2585.83 903.734 2585.59 904.254 2585.47Z" fill="#747474"/>
<path d="M926.958 2591.41C927.758 2591.22 928.504 2591.33 929.197 2591.73C929.9 2592.14 930.369 2592.72 930.604 2593.49C930.739 2593.92 930.806 2594.39 930.805 2594.9C930.811 2595.39 930.765 2596 930.668 2596.73L929.932 2602.65L927.254 2603.28L926.862 2596.79C925.92 2596.45 925.297 2595.78 924.993 2594.79C924.757 2594.03 924.83 2593.32 925.21 2592.67C925.586 2592.02 926.169 2591.59 926.958 2591.41ZM923.721 2580.89C924.521 2580.7 925.268 2580.81 925.964 2581.23C926.667 2581.63 927.135 2582.21 927.367 2582.96C927.599 2583.72 927.53 2584.43 927.159 2585.11C926.796 2585.78 926.215 2586.2 925.415 2586.39C924.626 2586.58 923.878 2586.46 923.172 2586.05C922.463 2585.63 921.992 2585.04 921.76 2584.28C921.606 2583.79 921.59 2583.3 921.71 2582.82C921.831 2582.34 922.066 2581.93 922.417 2581.59C922.767 2581.24 923.202 2581.01 923.721 2580.89Z" fill="#747474"/>
</g>
<g clip-path="url(#clip5_97_368)">
<path d="M874.143 2623.32C874.943 2623.13 875.689 2623.24 876.382 2623.65C877.085 2624.05 877.554 2624.63 877.789 2625.4C877.924 2625.84 877.991 2626.31 877.99 2626.81C877.996 2627.3 877.951 2627.91 877.853 2628.65L877.117 2634.56L874.439 2635.19L874.047 2628.71C873.105 2628.36 872.482 2627.69 872.178 2626.7C871.942 2625.94 872.015 2625.23 872.395 2624.59C872.771 2623.93 873.354 2623.51 874.143 2623.32ZM870.906 2612.8C871.706 2612.61 872.453 2612.73 873.149 2613.14C873.852 2613.54 874.32 2614.12 874.552 2614.88C874.784 2615.63 874.715 2616.35 874.344 2617.03C873.981 2617.69 873.4 2618.12 872.6 2618.31C871.811 2618.49 871.063 2618.38 870.357 2617.96C869.648 2617.54 869.177 2616.95 868.945 2616.2C868.791 2615.7 868.775 2615.21 868.895 2614.73C869.016 2614.26 869.251 2613.85 869.602 2613.5C869.952 2613.16 870.387 2612.92 870.906 2612.8Z" fill="#747474"/>
<path d="M893.611 2618.74C894.41 2618.55 895.157 2618.66 895.849 2619.06C896.552 2619.47 897.021 2620.05 897.257 2620.81C897.391 2621.25 897.458 2621.72 897.457 2622.23C897.464 2622.72 897.418 2623.33 897.321 2624.06L896.585 2629.98L893.906 2630.61L893.514 2624.12C892.573 2623.78 891.95 2623.11 891.645 2622.12C891.41 2621.35 891.482 2620.65 891.862 2620C892.239 2619.34 892.822 2618.92 893.611 2618.74ZM890.374 2608.22C891.173 2608.03 891.921 2608.14 892.617 2608.56C893.32 2608.96 893.787 2609.54 894.019 2610.29C894.251 2611.05 894.182 2611.76 893.812 2612.44C893.449 2613.11 892.867 2613.53 892.068 2613.72C891.279 2613.91 890.531 2613.79 889.825 2613.38C889.116 2612.96 888.645 2612.37 888.413 2611.61C888.259 2611.11 888.242 2610.63 888.363 2610.15C888.484 2609.67 888.719 2609.26 889.069 2608.92C889.42 2608.57 889.855 2608.34 890.374 2608.22Z" fill="#747474"/>
<path d="M913.079 2614.15C913.878 2613.96 914.624 2614.07 915.317 2614.48C916.02 2614.88 916.489 2615.47 916.724 2616.23C916.859 2616.67 916.926 2617.14 916.925 2617.64C916.931 2618.13 916.886 2618.74 916.788 2619.48L916.052 2625.39L913.374 2626.02L912.982 2619.54C912.04 2619.19 911.417 2618.52 911.113 2617.53C910.878 2616.77 910.95 2616.06 911.33 2615.42C911.707 2614.76 912.289 2614.34 913.079 2614.15ZM909.841 2603.63C910.641 2603.44 911.388 2603.56 912.084 2603.97C912.787 2604.38 913.255 2604.95 913.487 2605.71C913.719 2606.46 913.65 2607.18 913.279 2607.86C912.916 2608.52 912.335 2608.95 911.535 2609.14C910.746 2609.32 909.998 2609.21 909.292 2608.8C908.583 2608.37 908.112 2607.78 907.88 2607.03C907.726 2606.53 907.71 2606.04 907.83 2605.56C907.951 2605.09 908.187 2604.68 908.537 2604.33C908.887 2603.99 909.322 2603.75 909.841 2603.63Z" fill="#747474"/>
<path d="M932.546 2609.57C933.346 2609.38 934.092 2609.49 934.784 2609.89C935.487 2610.3 935.956 2610.88 936.192 2611.65C936.327 2612.08 936.393 2612.55 936.392 2613.06C936.399 2613.55 936.353 2614.16 936.256 2614.89L935.52 2620.81L932.841 2621.44L932.449 2614.95C931.508 2614.61 930.885 2613.94 930.58 2612.95C930.345 2612.19 930.417 2611.48 930.797 2610.83C931.174 2610.18 931.757 2609.75 932.546 2609.57ZM929.309 2599.05C930.108 2598.86 930.856 2598.97 931.552 2599.39C932.255 2599.79 932.722 2600.37 932.954 2601.12C933.187 2601.88 933.117 2602.59 932.747 2603.27C932.384 2603.94 931.802 2604.36 931.003 2604.55C930.214 2604.74 929.466 2604.62 928.76 2604.21C928.051 2603.79 927.58 2603.2 927.348 2602.44C927.194 2601.94 927.177 2601.46 927.298 2600.98C927.419 2600.5 927.654 2600.09 928.004 2599.75C928.355 2599.4 928.79 2599.17 929.309 2599.05Z" fill="#747474"/>
</g>
<path d="M2.292 466.693C2.70267 466.693 3.044 466.831 3.316 467.109C3.59333 467.386 3.732 467.725 3.732 468.125C3.732 468.354 3.69467 468.591 3.62 468.837C3.55067 469.077 3.43867 469.37 3.284 469.717L2.06 472.517H0.684L1.452 469.309C1.052 469.031 0.852 468.634 0.852 468.117C0.852 467.717 0.990667 467.381 1.268 467.109C1.54533 466.831 1.88667 466.693 2.292 466.693ZM2.292 461.189C2.70267 461.189 3.044 461.33 3.316 461.613C3.59333 461.89 3.732 462.226 3.732 462.621C3.732 463.015 3.59333 463.357 3.316 463.645C3.044 463.927 2.70267 464.069 2.292 464.069C1.88667 464.069 1.54533 463.927 1.268 463.645C0.990667 463.357 0.852 463.015 0.852 462.621C0.852 462.359 0.916 462.119 1.044 461.901C1.172 461.682 1.34533 461.509 1.564 461.381C1.78267 461.253 2.02533 461.189 2.292 461.189Z" fill="#747474"/>
<path d="M22.292 466.693C22.7027 466.693 23.044 466.831 23.316 467.109C23.5933 467.386 23.732 467.725 23.732 468.125C23.732 468.354 23.6947 468.591 23.62 468.837C23.5507 469.077 23.4387 469.37 23.284 469.717L22.06 472.517H20.684L21.452 469.309C21.052 469.031 20.852 468.634 20.852 468.117C20.852 467.717 20.9907 467.381 21.268 467.109C21.5453 466.831 21.8867 466.693 22.292 466.693ZM22.292 461.189C22.7027 461.189 23.044 461.33 23.316 461.613C23.5933 461.89 23.732 462.226 23.732 462.621C23.732 463.015 23.5933 463.357 23.316 463.645C23.044 463.927 22.7027 464.069 22.292 464.069C21.8867 464.069 21.5453 463.927 21.268 463.645C20.9907 463.357 20.852 463.015 20.852 462.621C20.852 462.359 20.916 462.119 21.044 461.901C21.172 461.682 21.3453 461.509 21.564 461.381C21.7827 461.253 22.0253 461.189 22.292 461.189Z" fill="#747474"/>
<path d="M2.292 485.693C2.70267 485.693 3.044 485.831 3.316 486.109C3.59333 486.386 3.732 486.725 3.732 487.125C3.732 487.354 3.69467 487.591 3.62 487.837C3.55067 488.077 3.43867 488.37 3.284 488.717L2.06 491.517H0.684L1.452 488.309C1.052 488.031 0.852 487.634 0.852 487.117C0.852 486.717 0.990667 486.381 1.268 486.109C1.54533 485.831 1.88667 485.693 2.292 485.693ZM2.292 480.189C2.70267 480.189 3.044 480.33 3.316 480.613C3.59333 480.89 3.732 481.226 3.732 481.621C3.732 482.015 3.59333 482.357 3.316 482.645C3.044 482.927 2.70267 483.069 2.292 483.069C1.88667 483.069 1.54533 482.927 1.268 482.645C0.990667 482.357 0.852 482.015 0.852 481.621C0.852 481.359 0.916 481.119 1.044 480.901C1.172 480.682 1.34533 480.509 1.564 480.381C1.78267 480.253 2.02533 480.189 2.292 480.189Z" fill="#747474"/>
<path d="M22.292 485.693C22.7027 485.693 23.044 485.831 23.316 486.109C23.5933 486.386 23.732 486.725 23.732 487.125C23.732 487.354 23.6947 487.591 23.62 487.837C23.5507 488.077 23.4387 488.37 23.284 488.717L22.06 491.517H20.684L21.452 488.309C21.052 488.031 20.852 487.634 20.852 487.117C20.852 486.717 20.9907 486.381 21.268 486.109C21.5453 485.831 21.8867 485.693 22.292 485.693ZM22.292 480.189C22.7027 480.189 23.044 480.33 23.316 480.613C23.5933 480.89 23.732 481.226 23.732 481.621C23.732 482.015 23.5933 482.357 23.316 482.645C23.044 482.927 22.7027 483.069 22.292 483.069C21.8867 483.069 21.5453 482.927 21.268 482.645C20.9907 482.357 20.852 482.015 20.852 481.621C20.852 481.359 20.916 481.119 21.044 480.901C21.172 480.682 21.3453 480.509 21.564 480.381C21.7827 480.253 22.0253 480.189 22.292 480.189Z" fill="#747474"/>
<rect x="-44.5" y="586.755" width="86" height="107.979" stroke="#747474" stroke-width="3"/>
<rect x="-44.5" y="1.5" width="86" height="107.979" stroke="#747474" stroke-width="3"/>
<rect x="-35.5" y="2422.13" width="86" height="107.979" stroke="#747474" stroke-width="3"/>
<rect x="-56.5" y="2743.19" width="159" height="107.979" stroke="#747474" stroke-width="3"/>
<rect x="1322.5" y="793.213" width="86" height="262.822" stroke="#747474" stroke-width="3"/>
<rect x="1304.5" y="1775.64" width="96" height="262.822" stroke="#747474" stroke-width="3"/>
<rect x="1113.5" y="2173.68" width="395" height="402.793" stroke="#747474" stroke-width="3"/>
<path d="M30.2389 903.203L29.7909 906.603H30.9749V907.883H29.6149L29.2869 910.443H27.7829L28.1189 907.883H26.0949L25.7589 910.443H24.2549L24.5909 907.883H23.4469V906.603H24.7589L25.2229 903.203H24.0389V901.915H25.3909L25.7189 899.403H27.2309L26.8789 901.915H28.9109L29.2469 899.403H30.7509L30.4069 901.915H31.5669V903.203H30.2389ZM26.2629 906.603H28.2869L28.7429 903.203H26.7109L26.2629 906.603Z" fill="#747474"/>
<path d="M42.2389 903.203L41.7909 906.603H42.9749V907.883H41.6149L41.2869 910.443H39.7829L40.1189 907.883H38.0949L37.7589 910.443H36.2549L36.5909 907.883H35.4469V906.603H36.7589L37.2229 903.203H36.0389V901.915H37.3909L37.7189 899.403H39.2309L38.8789 901.915H40.9109L41.2469 899.403H42.7509L42.4069 901.915H43.5669V903.203H42.2389ZM38.2629 906.603H40.2869L40.7429 903.203H38.7109L38.2629 906.603Z" fill="#747474"/>
<path d="M54.2389 903.203L53.7909 906.603H54.9749V907.883H53.6149L53.2869 910.443H51.7829L52.1189 907.883H50.0949L49.7589 910.443H48.2549L48.5909 907.883H47.4469V906.603H48.7589L49.2229 903.203H48.0389V901.915H49.3909L49.7189 899.403H51.2309L50.8789 901.915H52.9109L53.2469 899.403H54.7509L54.4069 901.915H55.5669V903.203H54.2389ZM50.2629 906.603H52.2869L52.7429 903.203H50.7109L50.2629 906.603Z" fill="#747474"/>
<path d="M66.2389 903.203L65.7909 906.603H66.9749V907.883H65.6149L65.2869 910.443H63.7829L64.1189 907.883H62.0949L61.7589 910.443H60.2549L60.5909 907.883H59.4469V906.603H60.7589L61.2229 903.203H60.0389V901.915H61.3909L61.7189 899.403H63.2309L62.8789 901.915H64.9109L65.2469 899.403H66.7509L66.4069 901.915H67.5669V903.203H66.2389ZM62.2629 906.603H64.2869L64.7429 903.203H62.7109L62.2629 906.603Z" fill="#747474"/>
<path d="M30.2389 918.203L29.7909 921.603H30.9749V922.883H29.6149L29.2869 925.443H27.7829L28.1189 922.883H26.0949L25.7589 925.443H24.2549L24.5909 922.883H23.4469V921.603H24.7589L25.2229 918.203H24.0389V916.915H25.3909L25.7189 914.403H27.2309L26.8789 916.915H28.9109L29.2469 914.403H30.7509L30.4069 916.915H31.5669V918.203H30.2389ZM26.2629 921.603H28.2869L28.7429 918.203H26.7109L26.2629 921.603Z" fill="#747474"/>
<path d="M42.2389 918.203L41.7909 921.603H42.9749V922.883H41.6149L41.2869 925.443H39.7829L40.1189 922.883H38.0949L37.7589 925.443H36.2549L36.5909 922.883H35.4469V921.603H36.7589L37.2229 918.203H36.0389V916.915H37.3909L37.7189 914.403H39.2309L38.8789 916.915H40.9109L41.2469 914.403H42.7509L42.4069 916.915H43.5669V918.203H42.2389ZM38.2629 921.603H40.2869L40.7429 918.203H38.7109L38.2629 921.603Z" fill="#747474"/>
<path d="M54.2389 918.203L53.7909 921.603H54.9749V922.883H53.6149L53.2869 925.443H51.7829L52.1189 922.883H50.0949L49.7589 925.443H48.2549L48.5909 922.883H47.4469V921.603H48.7589L49.2229 918.203H48.0389V916.915H49.3909L49.7189 914.403H51.2309L50.8789 916.915H52.9109L53.2469 914.403H54.7509L54.4069 916.915H55.5669V918.203H54.2389ZM50.2629 921.603H52.2869L52.7429 918.203H50.7109L50.2629 921.603Z" fill="#747474"/>
<path d="M66.2389 918.203L65.7909 921.603H66.9749V922.883H65.6149L65.2869 925.443H63.7829L64.1189 922.883H62.0949L61.7589 925.443H60.2549L60.5909 922.883H59.4469V921.603H60.7589L61.2229 918.203H60.0389V916.915H61.3909L61.7189 914.403H63.2309L62.8789 916.915H64.9109L65.2469 914.403H66.7509L66.4069 916.915H67.5669V918.203H66.2389ZM62.2629 921.603H64.2869L64.7429 918.203H62.7109L62.2629 921.603Z" fill="#747474"/>
<path d="M1263.24 249.711L1262.79 253.111H1263.98V254.391H1262.62L1262.29 256.951H1260.78L1261.12 254.391H1259.1L1258.76 256.951H1257.26L1257.59 254.391H1256.45V253.111H1257.76L1258.22 249.711H1257.04V248.423H1258.39L1258.72 245.911H1260.23L1259.88 248.423H1261.91L1262.25 245.911H1263.75L1263.41 248.423H1264.57V249.711H1263.24ZM1259.26 253.111H1261.29L1261.74 249.711H1259.71L1259.26 253.111Z" fill="#747474"/>
<path d="M1275.24 249.711L1274.79 253.111H1275.98V254.391H1274.62L1274.29 256.951H1272.78L1273.12 254.391H1271.1L1270.76 256.951H1269.26L1269.59 254.391H1268.45V253.111H1269.76L1270.22 249.711H1269.04V248.423H1270.39L1270.72 245.911H1272.23L1271.88 248.423H1273.91L1274.25 245.911H1275.75L1275.41 248.423H1276.57V249.711H1275.24ZM1271.26 253.111H1273.29L1273.74 249.711H1271.71L1271.26 253.111Z" fill="#747474"/>
<path d="M1287.24 249.711L1286.79 253.111H1287.98V254.391H1286.62L1286.29 256.951H1284.78L1285.12 254.391H1283.1L1282.76 256.951H1281.26L1281.59 254.391H1280.45V253.111H1281.76L1282.22 249.711H1281.04V248.423H1282.39L1282.72 245.911H1284.23L1283.88 248.423H1285.91L1286.25 245.911H1287.75L1287.41 248.423H1288.57V249.711H1287.24ZM1283.26 253.111H1285.29L1285.74 249.711H1283.71L1283.26 253.111Z" fill="#747474"/>
<path d="M1299.24 249.711L1298.79 253.111H1299.98V254.391H1298.62L1298.29 256.951H1296.78L1297.12 254.391H1295.1L1294.76 256.951H1293.26L1293.59 254.391H1292.45V253.111H1293.76L1294.22 249.711H1293.04V248.423H1294.39L1294.72 245.911H1296.23L1295.88 248.423H1297.91L1298.25 245.911H1299.75L1299.41 248.423H1300.57V249.711H1299.24ZM1295.26 253.111H1297.29L1297.74 249.711H1295.71L1295.26 253.111Z" fill="#747474"/>
<path d="M1263.24 264.711L1262.79 268.111H1263.98V269.391H1262.62L1262.29 271.951H1260.78L1261.12 269.391H1259.1L1258.76 271.951H1257.26L1257.59 269.391H1256.45V268.111H1257.76L1258.22 264.711H1257.04V263.423H1258.39L1258.72 260.911H1260.23L1259.88 263.423H1261.91L1262.25 260.911H1263.75L1263.41 263.423H1264.57V264.711H1263.24ZM1259.26 268.111H1261.29L1261.74 264.711H1259.71L1259.26 268.111Z" fill="#747474"/>
<path d="M1275.24 264.711L1274.79 268.111H1275.98V269.391H1274.62L1274.29 271.951H1272.78L1273.12 269.391H1271.1L1270.76 271.951H1269.26L1269.59 269.391H1268.45V268.111H1269.76L1270.22 264.711H1269.04V263.423H1270.39L1270.72 260.911H1272.23L1271.88 263.423H1273.91L1274.25 260.911H1275.75L1275.41 263.423H1276.57V264.711H1275.24ZM1271.26 268.111H1273.29L1273.74 264.711H1271.71L1271.26 268.111Z" fill="#747474"/>
<path d="M1287.24 264.711L1286.79 268.111H1287.98V269.391H1286.62L1286.29 271.951H1284.78L1285.12 269.391H1283.1L1282.76 271.951H1281.26L1281.59 269.391H1280.45V268.111H1281.76L1282.22 264.711H1281.04V263.423H1282.39L1282.72 260.911H1284.23L1283.88 263.423H1285.91L1286.25 260.911H1287.75L1287.41 263.423H1288.57V264.711H1287.24ZM1283.26 268.111H1285.29L1285.74 264.711H1283.71L1283.26 268.111Z" fill="#747474"/>
<path d="M1299.24 264.711L1298.79 268.111H1299.98V269.391H1298.62L1298.29 271.951H1296.78L1297.12 269.391H1295.1L1294.76 271.951H1293.26L1293.59 269.391H1292.45V268.111H1293.76L1294.22 264.711H1293.04V263.423H1294.39L1294.72 260.911H1296.23L1295.88 263.423H1297.91L1298.25 260.911H1299.75L1299.41 263.423H1300.57V264.711H1299.24ZM1295.26 268.111H1297.29L1297.74 264.711H1295.71L1295.26 268.111Z" fill="#747474"/>
<path d="M15.239 1998.91L14.791 2002.31H15.975V2003.59H14.615L14.287 2006.15H12.783L13.119 2003.59H11.095L10.759 2006.15H9.255L9.591 2003.59H8.447V2002.31H9.759L10.223 1998.91H9.039V1997.62H10.391L10.719 1995.11H12.231L11.879 1997.62H13.911L14.247 1995.11H15.751L15.407 1997.62H16.567V1998.91H15.239ZM11.263 2002.31H13.287L13.743 1998.91H11.711L11.263 2002.31Z" fill="#747474"/>
<path d="M27.239 1998.91L26.791 2002.31H27.975V2003.59H26.615L26.287 2006.15H24.783L25.119 2003.59H23.095L22.759 2006.15H21.255L21.591 2003.59H20.447V2002.31H21.759L22.223 1998.91H21.039V1997.62H22.391L22.719 1995.11H24.231L23.879 1997.62H25.911L26.247 1995.11H27.751L27.407 1997.62H28.567V1998.91H27.239ZM23.263 2002.31H25.287L25.743 1998.91H23.711L23.263 2002.31Z" fill="#747474"/>
<path d="M39.239 1998.91L38.791 2002.31H39.975V2003.59H38.615L38.287 2006.15H36.783L37.119 2003.59H35.095L34.759 2006.15H33.255L33.591 2003.59H32.447V2002.31H33.759L34.223 1998.91H33.039V1997.62H34.391L34.719 1995.11H36.231L35.879 1997.62H37.911L38.247 1995.11H39.751L39.407 1997.62H40.567V1998.91H39.239ZM35.263 2002.31H37.287L37.743 1998.91H35.711L35.263 2002.31Z" fill="#747474"/>
<path d="M51.239 1998.91L50.791 2002.31H51.975V2003.59H50.615L50.287 2006.15H48.783L49.119 2003.59H47.095L46.759 2006.15H45.255L45.591 2003.59H44.447V2002.31H45.759L46.223 1998.91H45.039V1997.62H46.391L46.719 1995.11H48.231L47.879 1997.62H49.911L50.247 1995.11H51.751L51.407 1997.62H52.567V1998.91H51.239ZM47.263 2002.31H49.287L49.743 1998.91H47.711L47.263 2002.31Z" fill="#747474"/>
<path d="M15.239 2013.91L14.791 2017.31H15.975V2018.59H14.615L14.287 2021.15H12.783L13.119 2018.59H11.095L10.759 2021.15H9.255L9.591 2018.59H8.447V2017.31H9.759L10.223 2013.91H9.039V2012.62H10.391L10.719 2010.11H12.231L11.879 2012.62H13.911L14.247 2010.11H15.751L15.407 2012.62H16.567V2013.91H15.239ZM11.263 2017.31H13.287L13.743 2013.91H11.711L11.263 2017.31Z" fill="#747474"/>
<path d="M27.239 2013.91L26.791 2017.31H27.975V2018.59H26.615L26.287 2021.15H24.783L25.119 2018.59H23.095L22.759 2021.15H21.255L21.591 2018.59H20.447V2017.31H21.759L22.223 2013.91H21.039V2012.62H22.391L22.719 2010.11H24.231L23.879 2012.62H25.911L26.247 2010.11H27.751L27.407 2012.62H28.567V2013.91H27.239ZM23.263 2017.31H25.287L25.743 2013.91H23.711L23.263 2017.31Z" fill="#747474"/>
<path d="M39.239 2013.91L38.791 2017.31H39.975V2018.59H38.615L38.287 2021.15H36.783L37.119 2018.59H35.095L34.759 2021.15H33.255L33.591 2018.59H32.447V2017.31H33.759L34.223 2013.91H33.039V2012.62H34.391L34.719 2010.11H36.231L35.879 2012.62H37.911L38.247 2010.11H39.751L39.407 2012.62H40.567V2013.91H39.239ZM35.263 2017.31H37.287L37.743 2013.91H35.711L35.263 2017.31Z" fill="#747474"/>
<path d="M51.239 2013.91L50.791 2017.31H51.975V2018.59H50.615L50.287 2021.15H48.783L49.119 2018.59H47.095L46.759 2021.15H45.255L45.591 2018.59H44.447V2017.31H45.759L46.223 2013.91H45.039V2012.62H46.391L46.719 2010.11H48.231L47.879 2012.62H49.911L50.247 2010.11H51.751L51.407 2012.62H52.567V2013.91H51.239ZM47.263 2017.31H49.287L49.743 2013.91H47.711L47.263 2017.31Z" fill="#747474"/>
<path d="M152.239 2397.83L151.791 2401.23H152.975V2402.51H151.615L151.287 2405.07H149.783L150.119 2402.51H148.095L147.759 2405.07H146.255L146.591 2402.51H145.447V2401.23H146.759L147.223 2397.83H146.039V2396.54H147.391L147.719 2394.03H149.231L148.879 2396.54H150.911L151.247 2394.03H152.751L152.407 2396.54H153.567V2397.83H152.239ZM148.263 2401.23H150.287L150.743 2397.83H148.711L148.263 2401.23Z" fill="#747474"/>
<path d="M164.239 2397.83L163.791 2401.23H164.975V2402.51H163.615L163.287 2405.07H161.783L162.119 2402.51H160.095L159.759 2405.07H158.255L158.591 2402.51H157.447V2401.23H158.759L159.223 2397.83H158.039V2396.54H159.391L159.719 2394.03H161.231L160.879 2396.54H162.911L163.247 2394.03H164.751L164.407 2396.54H165.567V2397.83H164.239ZM160.263 2401.23H162.287L162.743 2397.83H160.711L160.263 2401.23Z" fill="#747474"/>
<path d="M176.239 2397.83L175.791 2401.23H176.975V2402.51H175.615L175.287 2405.07H173.783L174.119 2402.51H172.095L171.759 2405.07H170.255L170.591 2402.51H169.447V2401.23H170.759L171.223 2397.83H170.039V2396.54H171.391L171.719 2394.03H173.231L172.879 2396.54H174.911L175.247 2394.03H176.751L176.407 2396.54H177.567V2397.83H176.239ZM172.263 2401.23H174.287L174.743 2397.83H172.711L172.263 2401.23Z" fill="#747474"/>
<path d="M188.239 2397.83L187.791 2401.23H188.975V2402.51H187.615L187.287 2405.07H185.783L186.119 2402.51H184.095L183.759 2405.07H182.255L182.591 2402.51H181.447V2401.23H182.759L183.223 2397.83H182.039V2396.54H183.391L183.719 2394.03H185.231L184.879 2396.54H186.911L187.247 2394.03H188.751L188.407 2396.54H189.567V2397.83H188.239ZM184.263 2401.23H186.287L186.743 2397.83H184.711L184.263 2401.23Z" fill="#747474"/>
<path d="M152.239 2412.83L151.791 2416.23H152.975V2417.51H151.615L151.287 2420.07H149.783L150.119 2417.51H148.095L147.759 2420.07H146.255L146.591 2417.51H145.447V2416.23H146.759L147.223 2412.83H146.039V2411.54H147.391L147.719 2409.03H149.231L148.879 2411.54H150.911L151.247 2409.03H152.751L152.407 2411.54H153.567V2412.83H152.239ZM148.263 2416.23H150.287L150.743 2412.83H148.711L148.263 2416.23Z" fill="#747474"/>
<path d="M164.239 2412.83L163.791 2416.23H164.975V2417.51H163.615L163.287 2420.07H161.783L162.119 2417.51H160.095L159.759 2420.07H158.255L158.591 2417.51H157.447V2416.23H158.759L159.223 2412.83H158.039V2411.54H159.391L159.719 2409.03H161.231L160.879 2411.54H162.911L163.247 2409.03H164.751L164.407 2411.54H165.567V2412.83H164.239ZM160.263 2416.23H162.287L162.743 2412.83H160.711L160.263 2416.23Z" fill="#747474"/>
<path d="M176.239 2412.83L175.791 2416.23H176.975V2417.51H175.615L175.287 2420.07H173.783L174.119 2417.51H172.095L171.759 2420.07H170.255L170.591 2417.51H169.447V2416.23H170.759L171.223 2412.83H170.039V2411.54H171.391L171.719 2409.03H173.231L172.879 2411.54H174.911L175.247 2409.03H176.751L176.407 2411.54H177.567V2412.83H176.239ZM172.263 2416.23H174.287L174.743 2412.83H172.711L172.263 2416.23Z" fill="#747474"/>
<path d="M188.239 2412.83L187.791 2416.23H188.975V2417.51H187.615L187.287 2420.07H185.783L186.119 2417.51H184.095L183.759 2420.07H182.255L182.591 2417.51H181.447V2416.23H182.759L183.223 2412.83H182.039V2411.54H183.391L183.719 2409.03H185.231L184.879 2411.54H186.911L187.247 2409.03H188.751L188.407 2411.54H189.567V2412.83H188.239ZM184.263 2416.23H186.287L186.743 2412.83H184.711L184.263 2416.23Z" fill="#747474"/>
<path d="M1114.24 1916.68L1113.79 1920.08H1114.98V1921.36H1113.62L1113.29 1923.92H1111.78L1112.12 1921.36H1110.1L1109.76 1923.92H1108.26L1108.59 1921.36H1107.45V1920.08H1108.76L1109.22 1916.68H1108.04V1915.39H1109.39L1109.72 1912.88H1111.23L1110.88 1915.39H1112.91L1113.25 1912.88H1114.75L1114.41 1915.39H1115.57V1916.68H1114.24ZM1110.26 1920.08H1112.29L1112.74 1916.68H1110.71L1110.26 1920.08Z" fill="#747474"/>
<path d="M1126.24 1916.68L1125.79 1920.08H1126.98V1921.36H1125.62L1125.29 1923.92H1123.78L1124.12 1921.36H1122.1L1121.76 1923.92H1120.26L1120.59 1921.36H1119.45V1920.08H1120.76L1121.22 1916.68H1120.04V1915.39H1121.39L1121.72 1912.88H1123.23L1122.88 1915.39H1124.91L1125.25 1912.88H1126.75L1126.41 1915.39H1127.57V1916.68H1126.24ZM1122.26 1920.08H1124.29L1124.74 1916.68H1122.71L1122.26 1920.08Z" fill="#747474"/>
<path d="M1138.24 1916.68L1137.79 1920.08H1138.98V1921.36H1137.62L1137.29 1923.92H1135.78L1136.12 1921.36H1134.1L1133.76 1923.92H1132.26L1132.59 1921.36H1131.45V1920.08H1132.76L1133.22 1916.68H1132.04V1915.39H1133.39L1133.72 1912.88H1135.23L1134.88 1915.39H1136.91L1137.25 1912.88H1138.75L1138.41 1915.39H1139.57V1916.68H1138.24ZM1134.26 1920.08H1136.29L1136.74 1916.68H1134.71L1134.26 1920.08Z" fill="#747474"/>
<path d="M1150.24 1916.68L1149.79 1920.08H1150.98V1921.36H1149.62L1149.29 1923.92H1147.78L1148.12 1921.36H1146.1L1145.76 1923.92H1144.26L1144.59 1921.36H1143.45V1920.08H1144.76L1145.22 1916.68H1144.04V1915.39H1145.39L1145.72 1912.88H1147.23L1146.88 1915.39H1148.91L1149.25 1912.88H1150.75L1150.41 1915.39H1151.57V1916.68H1150.24ZM1146.26 1920.08H1148.29L1148.74 1916.68H1146.71L1146.26 1920.08Z" fill="#747474"/>
<path d="M1114.24 1931.68L1113.79 1935.08H1114.98V1936.36H1113.62L1113.29 1938.92H1111.78L1112.12 1936.36H1110.1L1109.76 1938.92H1108.26L1108.59 1936.36H1107.45V1935.08H1108.76L1109.22 1931.68H1108.04V1930.39H1109.39L1109.72 1927.88H1111.23L1110.88 1930.39H1112.91L1113.25 1927.88H1114.75L1114.41 1930.39H1115.57V1931.68H1114.24ZM1110.26 1935.08H1112.29L1112.74 1931.68H1110.71L1110.26 1935.08Z" fill="#747474"/>
<path d="M1126.24 1931.68L1125.79 1935.08H1126.98V1936.36H1125.62L1125.29 1938.92H1123.78L1124.12 1936.36H1122.1L1121.76 1938.92H1120.26L1120.59 1936.36H1119.45V1935.08H1120.76L1121.22 1931.68H1120.04V1930.39H1121.39L1121.72 1927.88H1123.23L1122.88 1930.39H1124.91L1125.25 1927.88H1126.75L1126.41 1930.39H1127.57V1931.68H1126.24ZM1122.26 1935.08H1124.29L1124.74 1931.68H1122.71L1122.26 1935.08Z" fill="#747474"/>
<path d="M1138.24 1931.68L1137.79 1935.08H1138.98V1936.36H1137.62L1137.29 1938.92H1135.78L1136.12 1936.36H1134.1L1133.76 1938.92H1132.26L1132.59 1936.36H1131.45V1935.08H1132.76L1133.22 1931.68H1132.04V1930.39H1133.39L1133.72 1927.88H1135.23L1134.88 1930.39H1136.91L1137.25 1927.88H1138.75L1138.41 1930.39H1139.57V1931.68H1138.24ZM1134.26 1935.08H1136.29L1136.74 1931.68H1134.71L1134.26 1935.08Z" fill="#747474"/>
<path d="M1150.24 1931.68L1149.79 1935.08H1150.98V1936.36H1149.62L1149.29 1938.92H1147.78L1148.12 1936.36H1146.1L1145.76 1938.92H1144.26L1144.59 1936.36H1143.45V1935.08H1144.76L1145.22 1931.68H1144.04V1930.39H1145.39L1145.72 1927.88H1147.23L1146.88 1930.39H1148.91L1149.25 1927.88H1150.75L1150.41 1930.39H1151.57V1931.68H1150.24ZM1146.26 1935.08H1148.29L1148.74 1931.68H1146.71L1146.26 1935.08Z" fill="#747474"/>
<path d="M1217.24 2089.02L1216.79 2092.42H1217.98V2093.7H1216.62L1216.29 2096.26H1214.78L1215.12 2093.7H1213.1L1212.76 2096.26H1211.26L1211.59 2093.7H1210.45V2092.42H1211.76L1212.22 2089.02H1211.04V2087.73H1212.39L1212.72 2085.22H1214.23L1213.88 2087.73H1215.91L1216.25 2085.22H1217.75L1217.41 2087.73H1218.57V2089.02H1217.24ZM1213.26 2092.42H1215.29L1215.74 2089.02H1213.71L1213.26 2092.42Z" fill="#747474"/>
<path d="M1229.24 2089.02L1228.79 2092.42H1229.98V2093.7H1228.62L1228.29 2096.26H1226.78L1227.12 2093.7H1225.1L1224.76 2096.26H1223.26L1223.59 2093.7H1222.45V2092.42H1223.76L1224.22 2089.02H1223.04V2087.73H1224.39L1224.72 2085.22H1226.23L1225.88 2087.73H1227.91L1228.25 2085.22H1229.75L1229.41 2087.73H1230.57V2089.02H1229.24ZM1225.26 2092.42H1227.29L1227.74 2089.02H1225.71L1225.26 2092.42Z" fill="#747474"/>
<path d="M1241.24 2089.02L1240.79 2092.42H1241.98V2093.7H1240.62L1240.29 2096.26H1238.78L1239.12 2093.7H1237.1L1236.76 2096.26H1235.26L1235.59 2093.7H1234.45V2092.42H1235.76L1236.22 2089.02H1235.04V2087.73H1236.39L1236.72 2085.22H1238.23L1237.88 2087.73H1239.91L1240.25 2085.22H1241.75L1241.41 2087.73H1242.57V2089.02H1241.24ZM1237.26 2092.42H1239.29L1239.74 2089.02H1237.71L1237.26 2092.42Z" fill="#747474"/>
<path d="M1253.24 2089.02L1252.79 2092.42H1253.98V2093.7H1252.62L1252.29 2096.26H1250.78L1251.12 2093.7H1249.1L1248.76 2096.26H1247.26L1247.59 2093.7H1246.45V2092.42H1247.76L1248.22 2089.02H1247.04V2087.73H1248.39L1248.72 2085.22H1250.23L1249.88 2087.73H1251.91L1252.25 2085.22H1253.75L1253.41 2087.73H1254.57V2089.02H1253.24ZM1249.26 2092.42H1251.29L1251.74 2089.02H1249.71L1249.26 2092.42Z" fill="#747474"/>
<path d="M1217.24 2104.02L1216.79 2107.42H1217.98V2108.7H1216.62L1216.29 2111.26H1214.78L1215.12 2108.7H1213.1L1212.76 2111.26H1211.26L1211.59 2108.7H1210.45V2107.42H1211.76L1212.22 2104.02H1211.04V2102.73H1212.39L1212.72 2100.22H1214.23L1213.88 2102.73H1215.91L1216.25 2100.22H1217.75L1217.41 2102.73H1218.57V2104.02H1217.24ZM1213.26 2107.42H1215.29L1215.74 2104.02H1213.71L1213.26 2107.42Z" fill="#747474"/>
<path d="M1229.24 2104.02L1228.79 2107.42H1229.98V2108.7H1228.62L1228.29 2111.26H1226.78L1227.12 2108.7H1225.1L1224.76 2111.26H1223.26L1223.59 2108.7H1222.45V2107.42H1223.76L1224.22 2104.02H1223.04V2102.73H1224.39L1224.72 2100.22H1226.23L1225.88 2102.73H1227.91L1228.25 2100.22H1229.75L1229.41 2102.73H1230.57V2104.02H1229.24ZM1225.26 2107.42H1227.29L1227.74 2104.02H1225.71L1225.26 2107.42Z" fill="#747474"/>
<path d="M1241.24 2104.02L1240.79 2107.42H1241.98V2108.7H1240.62L1240.29 2111.26H1238.78L1239.12 2108.7H1237.1L1236.76 2111.26H1235.26L1235.59 2108.7H1234.45V2107.42H1235.76L1236.22 2104.02H1235.04V2102.73H1236.39L1236.72 2100.22H1238.23L1237.88 2102.73H1239.91L1240.25 2100.22H1241.75L1241.41 2102.73H1242.57V2104.02H1241.24ZM1237.26 2107.42H1239.29L1239.74 2104.02H1237.71L1237.26 2107.42Z" fill="#747474"/>
<path d="M1253.24 2104.02L1252.79 2107.42H1253.98V2108.7H1252.62L1252.29 2111.26H1250.78L1251.12 2108.7H1249.1L1248.76 2111.26H1247.26L1247.59 2108.7H1246.45V2107.42H1247.76L1248.22 2104.02H1247.04V2102.73H1248.39L1248.72 2100.22H1250.23L1249.88 2102.73H1251.91L1252.25 2100.22H1253.75L1253.41 2102.73H1254.57V2104.02H1253.24ZM1249.26 2107.42H1251.29L1251.74 2104.02H1249.71L1249.26 2107.42Z" fill="#747474"/>
<path d="M1254.09 1360.47L1396.64 1363.52L1281.84 1437.51L1254.09 1360.47Z" stroke="#747474"/>
<path d="M1158.69 678.62C1158.27 679.306 1158.53 680.221 1159.25 680.665L1171.14 687.888C1171.87 688.332 1172.8 688.135 1173.21 687.449C1173.63 686.763 1173.38 685.848 1172.65 685.404L1162.08 678.984L1168.12 669.048C1168.54 668.362 1168.29 667.447 1167.56 667.004C1166.83 666.56 1165.9 666.757 1165.48 667.443L1158.69 678.62ZM1436.45 619.375L1159.61 677.977L1160.41 680.869L1437.25 622.266L1436.45 619.375Z" fill="#747474"/>
<path d="M35 1478.39C35 1499.82 17.7557 1517.19 -3.5 1517.19C-24.7557 1517.19 -42 1499.82 -42 1478.39C-42 1456.95 -24.7557 1439.58 -3.5 1439.58C17.7557 1439.58 35 1456.95 35 1478.39Z" stroke="#747474" stroke-width="2"/>
<path d="M52 3017.2C52 3038.63 34.7557 3056 13.5 3056C-7.75574 3056 -25 3038.63 -25 3017.2C-25 2995.76 -7.75574 2978.39 13.5 2978.39C34.7557 2978.39 52 2995.76 52 3017.2Z" stroke="#747474" stroke-width="2"/>
<path d="M-75.5054 1768.14L67.048 1771.19L-47.7577 1845.18L-75.5054 1768.14Z" stroke="#747474"/>
<path d="M660.495 2279.91L803.048 2282.96L688.242 2356.95L660.495 2279.91Z" stroke="#747474"/>
<path d="M1198.49 2754.06L1341.05 2757.11L1226.24 2831.1L1198.49 2754.06Z" stroke="#747474"/>
<defs>
<clipPath id="clip0_97_368">
<rect width="81" height="24" fill="white" transform="matrix(0.973377 -0.22921 0.294085 0.955779 190.41 1893.52)"/>
</clipPath>
<clipPath id="clip1_97_368">
<rect width="81" height="24" fill="white" transform="matrix(0.973377 -0.22921 0.294085 0.955779 195.997 1911.68)"/>
</clipPath>
<clipPath id="clip2_97_368">
<rect width="81" height="24" fill="white" transform="matrix(0.973377 -0.22921 0.294085 0.955779 84.9999 2625.18)"/>
</clipPath>
<clipPath id="clip3_97_368">
<rect width="81" height="24" fill="white" transform="matrix(0.973377 -0.22921 0.294085 0.955779 90.5875 2643.34)"/>
</clipPath>
<clipPath id="clip4_97_368">
<rect width="81" height="24" fill="white" transform="matrix(0.973377 -0.22921 0.294085 0.955779 851 2582.32)"/>
</clipPath>
<clipPath id="clip5_97_368">
<rect width="81" height="24" fill="white" transform="matrix(0.973377 -0.22921 0.294085 0.955779 856.588 2600.48)"/>
</clipPath>
</defs>
</svg>
