<svg width="1366" height="3494" viewBox="0 0 1366 3494" fill="none" xmlns="http://www.w3.org/2000/svg">
<path d="M1261.29 93.16C1261.7 93.16 1262.04 93.2987 1262.32 93.576C1262.59 93.8533 1262.73 94.192 1262.73 94.592C1262.73 94.8213 1262.69 95.0587 1262.62 95.304C1262.55 95.544 1262.44 95.8373 1262.28 96.184L1261.06 98.984H1259.68L1260.45 95.776C1260.05 95.4987 1259.85 95.1013 1259.85 94.584C1259.85 94.184 1259.99 93.848 1260.27 93.576C1260.55 93.2987 1260.89 93.16 1261.29 93.16ZM1261.29 87.656C1261.7 87.656 1262.04 87.7973 1262.32 88.08C1262.59 88.3573 1262.73 88.6933 1262.73 89.088C1262.73 89.4827 1262.59 89.824 1262.32 90.112C1262.04 90.3947 1261.7 90.536 1261.29 90.536C1260.89 90.536 1260.55 90.3947 1260.27 90.112C1259.99 89.824 1259.85 89.4827 1259.85 89.088C1259.85 88.8267 1259.92 88.5867 1260.04 88.368C1260.17 88.1493 1260.35 87.976 1260.56 87.848C1260.78 87.72 1261.03 87.656 1261.29 87.656Z" fill="#747474"/>
<path d="M1281.29 93.16C1281.7 93.16 1282.04 93.2987 1282.32 93.576C1282.59 93.8533 1282.73 94.192 1282.73 94.592C1282.73 94.8213 1282.69 95.0587 1282.62 95.304C1282.55 95.544 1282.44 95.8373 1282.28 96.184L1281.06 98.984H1279.68L1280.45 95.776C1280.05 95.4987 1279.85 95.1013 1279.85 94.584C1279.85 94.184 1279.99 93.848 1280.27 93.576C1280.55 93.2987 1280.89 93.16 1281.29 93.16ZM1281.29 87.656C1281.7 87.656 1282.04 87.7973 1282.32 88.08C1282.59 88.3573 1282.73 88.6933 1282.73 89.088C1282.73 89.4827 1282.59 89.824 1282.32 90.112C1282.04 90.3947 1281.7 90.536 1281.29 90.536C1280.89 90.536 1280.55 90.3947 1280.27 90.112C1279.99 89.824 1279.85 89.4827 1279.85 89.088C1279.85 88.8267 1279.92 88.5867 1280.04 88.368C1280.17 88.1493 1280.35 87.976 1280.56 87.848C1280.78 87.72 1281.03 87.656 1281.29 87.656Z" fill="#747474"/>
<path d="M1301.29 93.16C1301.7 93.16 1302.04 93.2987 1302.32 93.576C1302.59 93.8533 1302.73 94.192 1302.73 94.592C1302.73 94.8213 1302.69 95.0587 1302.62 95.304C1302.55 95.544 1302.44 95.8373 1302.28 96.184L1301.06 98.984H1299.68L1300.45 95.776C1300.05 95.4987 1299.85 95.1013 1299.85 94.584C1299.85 94.184 1299.99 93.848 1300.27 93.576C1300.55 93.2987 1300.89 93.16 1301.29 93.16ZM1301.29 87.656C1301.7 87.656 1302.04 87.7973 1302.32 88.08C1302.59 88.3573 1302.73 88.6933 1302.73 89.088C1302.73 89.4827 1302.59 89.824 1302.32 90.112C1302.04 90.3947 1301.7 90.536 1301.29 90.536C1300.89 90.536 1300.55 90.3947 1300.27 90.112C1299.99 89.824 1299.85 89.4827 1299.85 89.088C1299.85 88.8267 1299.92 88.5867 1300.04 88.368C1300.17 88.1493 1300.35 87.976 1300.56 87.848C1300.78 87.72 1301.03 87.656 1301.29 87.656Z" fill="#747474"/>
<path d="M1321.29 93.16C1321.7 93.16 1322.04 93.2987 1322.32 93.576C1322.59 93.8533 1322.73 94.192 1322.73 94.592C1322.73 94.8213 1322.69 95.0587 1322.62 95.304C1322.55 95.544 1322.44 95.8373 1322.28 96.184L1321.06 98.984H1319.68L1320.45 95.776C1320.05 95.4987 1319.85 95.1013 1319.85 94.584C1319.85 94.184 1319.99 93.848 1320.27 93.576C1320.55 93.2987 1320.89 93.16 1321.29 93.16ZM1321.29 87.656C1321.7 87.656 1322.04 87.7973 1322.32 88.08C1322.59 88.3573 1322.73 88.6933 1322.73 89.088C1322.73 89.4827 1322.59 89.824 1322.32 90.112C1322.04 90.3947 1321.7 90.536 1321.29 90.536C1320.89 90.536 1320.55 90.3947 1320.27 90.112C1319.99 89.824 1319.85 89.4827 1319.85 89.088C1319.85 88.8267 1319.92 88.5867 1320.04 88.368C1320.17 88.1493 1320.35 87.976 1320.56 87.848C1320.78 87.72 1321.03 87.656 1321.29 87.656Z" fill="#747474"/>
<path d="M1261.29 112.16C1261.7 112.16 1262.04 112.299 1262.32 112.576C1262.59 112.853 1262.73 113.192 1262.73 113.592C1262.73 113.821 1262.69 114.059 1262.62 114.304C1262.55 114.544 1262.44 114.837 1262.28 115.184L1261.06 117.984H1259.68L1260.45 114.776C1260.05 114.499 1259.85 114.101 1259.85 113.584C1259.85 113.184 1259.99 112.848 1260.27 112.576C1260.55 112.299 1260.89 112.16 1261.29 112.16ZM1261.29 106.656C1261.7 106.656 1262.04 106.797 1262.32 107.08C1262.59 107.357 1262.73 107.693 1262.73 108.088C1262.73 108.483 1262.59 108.824 1262.32 109.112C1262.04 109.395 1261.7 109.536 1261.29 109.536C1260.89 109.536 1260.55 109.395 1260.27 109.112C1259.99 108.824 1259.85 108.483 1259.85 108.088C1259.85 107.827 1259.92 107.587 1260.04 107.368C1260.17 107.149 1260.35 106.976 1260.56 106.848C1260.78 106.72 1261.03 106.656 1261.29 106.656Z" fill="#747474"/>
<path d="M1281.29 112.16C1281.7 112.16 1282.04 112.299 1282.32 112.576C1282.59 112.853 1282.73 113.192 1282.73 113.592C1282.73 113.821 1282.69 114.059 1282.62 114.304C1282.55 114.544 1282.44 114.837 1282.28 115.184L1281.06 117.984H1279.68L1280.45 114.776C1280.05 114.499 1279.85 114.101 1279.85 113.584C1279.85 113.184 1279.99 112.848 1280.27 112.576C1280.55 112.299 1280.89 112.16 1281.29 112.16ZM1281.29 106.656C1281.7 106.656 1282.04 106.797 1282.32 107.08C1282.59 107.357 1282.73 107.693 1282.73 108.088C1282.73 108.483 1282.59 108.824 1282.32 109.112C1282.04 109.395 1281.7 109.536 1281.29 109.536C1280.89 109.536 1280.55 109.395 1280.27 109.112C1279.99 108.824 1279.85 108.483 1279.85 108.088C1279.85 107.827 1279.92 107.587 1280.04 107.368C1280.17 107.149 1280.35 106.976 1280.56 106.848C1280.78 106.72 1281.03 106.656 1281.29 106.656Z" fill="#747474"/>
<path d="M1301.29 112.16C1301.7 112.16 1302.04 112.299 1302.32 112.576C1302.59 112.853 1302.73 113.192 1302.73 113.592C1302.73 113.821 1302.69 114.059 1302.62 114.304C1302.55 114.544 1302.44 114.837 1302.28 115.184L1301.06 117.984H1299.68L1300.45 114.776C1300.05 114.499 1299.85 114.101 1299.85 113.584C1299.85 113.184 1299.99 112.848 1300.27 112.576C1300.55 112.299 1300.89 112.16 1301.29 112.16ZM1301.29 106.656C1301.7 106.656 1302.04 106.797 1302.32 107.08C1302.59 107.357 1302.73 107.693 1302.73 108.088C1302.73 108.483 1302.59 108.824 1302.32 109.112C1302.04 109.395 1301.7 109.536 1301.29 109.536C1300.89 109.536 1300.55 109.395 1300.27 109.112C1299.99 108.824 1299.85 108.483 1299.85 108.088C1299.85 107.827 1299.92 107.587 1300.04 107.368C1300.17 107.149 1300.35 106.976 1300.56 106.848C1300.78 106.72 1301.03 106.656 1301.29 106.656Z" fill="#747474"/>
<path d="M1321.29 112.16C1321.7 112.16 1322.04 112.299 1322.32 112.576C1322.59 112.853 1322.73 113.192 1322.73 113.592C1322.73 113.821 1322.69 114.059 1322.62 114.304C1322.55 114.544 1322.44 114.837 1322.28 115.184L1321.06 117.984H1319.68L1320.45 114.776C1320.05 114.499 1319.85 114.101 1319.85 113.584C1319.85 113.184 1319.99 112.848 1320.27 112.576C1320.55 112.299 1320.89 112.16 1321.29 112.16ZM1321.29 106.656C1321.7 106.656 1322.04 106.797 1322.32 107.08C1322.59 107.357 1322.73 107.693 1322.73 108.088C1322.73 108.483 1322.59 108.824 1322.32 109.112C1322.04 109.395 1321.7 109.536 1321.29 109.536C1320.89 109.536 1320.55 109.395 1320.27 109.112C1319.99 108.824 1319.85 108.483 1319.85 108.088C1319.85 107.827 1319.92 107.587 1320.04 107.368C1320.17 107.149 1320.35 106.976 1320.56 106.848C1320.78 106.72 1321.03 106.656 1321.29 106.656Z" fill="#747474"/>
<path d="M81.2918 323.16C81.7025 323.16 82.0438 323.299 82.3158 323.576C82.5932 323.853 82.7318 324.192 82.7318 324.592C82.7318 324.821 82.6945 325.059 82.6198 325.304C82.5505 325.544 82.4385 325.837 82.2838 326.184L81.0598 328.984H79.6838L80.4518 325.776C80.0518 325.499 79.8518 325.101 79.8518 324.584C79.8518 324.184 79.9905 323.848 80.2678 323.576C80.5452 323.299 80.8865 323.16 81.2918 323.16ZM81.2918 317.656C81.7025 317.656 82.0438 317.797 82.3158 318.08C82.5932 318.357 82.7318 318.693 82.7318 319.088C82.7318 319.483 82.5932 319.824 82.3158 320.112C82.0438 320.395 81.7025 320.536 81.2918 320.536C80.8865 320.536 80.5452 320.395 80.2678 320.112C79.9905 319.824 79.8518 319.483 79.8518 319.088C79.8518 318.827 79.9158 318.587 80.0438 318.368C80.1718 318.149 80.3452 317.976 80.5638 317.848C80.7825 317.72 81.0252 317.656 81.2918 317.656Z" fill="#747474"/>
<path d="M101.292 323.16C101.702 323.16 102.044 323.299 102.316 323.576C102.593 323.853 102.732 324.192 102.732 324.592C102.732 324.821 102.694 325.059 102.62 325.304C102.55 325.544 102.438 325.837 102.284 326.184L101.06 328.984H99.6838L100.452 325.776C100.052 325.499 99.8518 325.101 99.8518 324.584C99.8518 324.184 99.9905 323.848 100.268 323.576C100.545 323.299 100.886 323.16 101.292 323.16ZM101.292 317.656C101.702 317.656 102.044 317.797 102.316 318.08C102.593 318.357 102.732 318.693 102.732 319.088C102.732 319.483 102.593 319.824 102.316 320.112C102.044 320.395 101.702 320.536 101.292 320.536C100.886 320.536 100.545 320.395 100.268 320.112C99.9905 319.824 99.8518 319.483 99.8518 319.088C99.8518 318.827 99.9158 318.587 100.044 318.368C100.172 318.149 100.345 317.976 100.564 317.848C100.782 317.72 101.025 317.656 101.292 317.656Z" fill="#747474"/>
<path d="M121.292 323.16C121.702 323.16 122.044 323.299 122.316 323.576C122.593 323.853 122.732 324.192 122.732 324.592C122.732 324.821 122.694 325.059 122.62 325.304C122.55 325.544 122.438 325.837 122.284 326.184L121.06 328.984H119.684L120.452 325.776C120.052 325.499 119.852 325.101 119.852 324.584C119.852 324.184 119.99 323.848 120.268 323.576C120.545 323.299 120.886 323.16 121.292 323.16ZM121.292 317.656C121.702 317.656 122.044 317.797 122.316 318.08C122.593 318.357 122.732 318.693 122.732 319.088C122.732 319.483 122.593 319.824 122.316 320.112C122.044 320.395 121.702 320.536 121.292 320.536C120.886 320.536 120.545 320.395 120.268 320.112C119.99 319.824 119.852 319.483 119.852 319.088C119.852 318.827 119.916 318.587 120.044 318.368C120.172 318.149 120.345 317.976 120.564 317.848C120.782 317.72 121.025 317.656 121.292 317.656Z" fill="#747474"/>
<path d="M141.292 323.16C141.702 323.16 142.044 323.299 142.316 323.576C142.593 323.853 142.732 324.192 142.732 324.592C142.732 324.821 142.694 325.059 142.62 325.304C142.55 325.544 142.438 325.837 142.284 326.184L141.06 328.984H139.684L140.452 325.776C140.052 325.499 139.852 325.101 139.852 324.584C139.852 324.184 139.99 323.848 140.268 323.576C140.545 323.299 140.886 323.16 141.292 323.16ZM141.292 317.656C141.702 317.656 142.044 317.797 142.316 318.08C142.593 318.357 142.732 318.693 142.732 319.088C142.732 319.483 142.593 319.824 142.316 320.112C142.044 320.395 141.702 320.536 141.292 320.536C140.886 320.536 140.545 320.395 140.268 320.112C139.99 319.824 139.852 319.483 139.852 319.088C139.852 318.827 139.916 318.587 140.044 318.368C140.172 318.149 140.345 317.976 140.564 317.848C140.782 317.72 141.025 317.656 141.292 317.656Z" fill="#747474"/>
<path d="M81.2918 342.16C81.7025 342.16 82.0438 342.299 82.3158 342.576C82.5932 342.853 82.7318 343.192 82.7318 343.592C82.7318 343.821 82.6945 344.059 82.6198 344.304C82.5505 344.544 82.4385 344.837 82.2838 345.184L81.0598 347.984H79.6838L80.4518 344.776C80.0518 344.499 79.8518 344.101 79.8518 343.584C79.8518 343.184 79.9905 342.848 80.2678 342.576C80.5452 342.299 80.8865 342.16 81.2918 342.16ZM81.2918 336.656C81.7025 336.656 82.0438 336.797 82.3158 337.08C82.5932 337.357 82.7318 337.693 82.7318 338.088C82.7318 338.483 82.5932 338.824 82.3158 339.112C82.0438 339.395 81.7025 339.536 81.2918 339.536C80.8865 339.536 80.5452 339.395 80.2678 339.112C79.9905 338.824 79.8518 338.483 79.8518 338.088C79.8518 337.827 79.9158 337.587 80.0438 337.368C80.1718 337.149 80.3452 336.976 80.5638 336.848C80.7825 336.72 81.0252 336.656 81.2918 336.656Z" fill="#747474"/>
<path d="M101.292 342.16C101.702 342.16 102.044 342.299 102.316 342.576C102.593 342.853 102.732 343.192 102.732 343.592C102.732 343.821 102.694 344.059 102.62 344.304C102.55 344.544 102.438 344.837 102.284 345.184L101.06 347.984H99.6838L100.452 344.776C100.052 344.499 99.8518 344.101 99.8518 343.584C99.8518 343.184 99.9905 342.848 100.268 342.576C100.545 342.299 100.886 342.16 101.292 342.16ZM101.292 336.656C101.702 336.656 102.044 336.797 102.316 337.08C102.593 337.357 102.732 337.693 102.732 338.088C102.732 338.483 102.593 338.824 102.316 339.112C102.044 339.395 101.702 339.536 101.292 339.536C100.886 339.536 100.545 339.395 100.268 339.112C99.9905 338.824 99.8518 338.483 99.8518 338.088C99.8518 337.827 99.9158 337.587 100.044 337.368C100.172 337.149 100.345 336.976 100.564 336.848C100.782 336.72 101.025 336.656 101.292 336.656Z" fill="#747474"/>
<path d="M121.292 342.16C121.702 342.16 122.044 342.299 122.316 342.576C122.593 342.853 122.732 343.192 122.732 343.592C122.732 343.821 122.694 344.059 122.62 344.304C122.55 344.544 122.438 344.837 122.284 345.184L121.06 347.984H119.684L120.452 344.776C120.052 344.499 119.852 344.101 119.852 343.584C119.852 343.184 119.99 342.848 120.268 342.576C120.545 342.299 120.886 342.16 121.292 342.16ZM121.292 336.656C121.702 336.656 122.044 336.797 122.316 337.08C122.593 337.357 122.732 337.693 122.732 338.088C122.732 338.483 122.593 338.824 122.316 339.112C122.044 339.395 121.702 339.536 121.292 339.536C120.886 339.536 120.545 339.395 120.268 339.112C119.99 338.824 119.852 338.483 119.852 338.088C119.852 337.827 119.916 337.587 120.044 337.368C120.172 337.149 120.345 336.976 120.564 336.848C120.782 336.72 121.025 336.656 121.292 336.656Z" fill="#747474"/>
<path d="M141.292 342.16C141.702 342.16 142.044 342.299 142.316 342.576C142.593 342.853 142.732 343.192 142.732 343.592C142.732 343.821 142.694 344.059 142.62 344.304C142.55 344.544 142.438 344.837 142.284 345.184L141.06 347.984H139.684L140.452 344.776C140.052 344.499 139.852 344.101 139.852 343.584C139.852 343.184 139.99 342.848 140.268 342.576C140.545 342.299 140.886 342.16 141.292 342.16ZM141.292 336.656C141.702 336.656 142.044 336.797 142.316 337.08C142.593 337.357 142.732 337.693 142.732 338.088C142.732 338.483 142.593 338.824 142.316 339.112C142.044 339.395 141.702 339.536 141.292 339.536C140.886 339.536 140.545 339.395 140.268 339.112C139.99 338.824 139.852 338.483 139.852 338.088C139.852 337.827 139.916 337.587 140.044 337.368C140.172 337.149 140.345 336.976 140.564 336.848C140.782 336.72 141.025 336.656 141.292 336.656Z" fill="#747474"/>
<path d="M13.292 1406.16C13.7027 1406.16 14.044 1406.3 14.316 1406.58C14.5933 1406.85 14.732 1407.19 14.732 1407.59C14.732 1407.82 14.6947 1408.06 14.62 1408.3C14.5507 1408.54 14.4387 1408.84 14.284 1409.18L13.06 1411.98H11.684L12.452 1408.78C12.052 1408.5 11.852 1408.1 11.852 1407.58C11.852 1407.18 11.9907 1406.85 12.268 1406.58C12.5453 1406.3 12.8867 1406.16 13.292 1406.16ZM13.292 1400.66C13.7027 1400.66 14.044 1400.8 14.316 1401.08C14.5933 1401.36 14.732 1401.69 14.732 1402.09C14.732 1402.48 14.5933 1402.82 14.316 1403.11C14.044 1403.39 13.7027 1403.54 13.292 1403.54C12.8867 1403.54 12.5453 1403.39 12.268 1403.11C11.9907 1402.82 11.852 1402.48 11.852 1402.09C11.852 1401.83 11.916 1401.59 12.044 1401.37C12.172 1401.15 12.3453 1400.98 12.564 1400.85C12.7827 1400.72 13.0253 1400.66 13.292 1400.66Z" fill="#747474"/>
<path d="M33.292 1406.16C33.7027 1406.16 34.044 1406.3 34.316 1406.58C34.5933 1406.85 34.732 1407.19 34.732 1407.59C34.732 1407.82 34.6947 1408.06 34.62 1408.3C34.5507 1408.54 34.4387 1408.84 34.284 1409.18L33.06 1411.98H31.684L32.452 1408.78C32.052 1408.5 31.852 1408.1 31.852 1407.58C31.852 1407.18 31.9907 1406.85 32.268 1406.58C32.5453 1406.3 32.8867 1406.16 33.292 1406.16ZM33.292 1400.66C33.7027 1400.66 34.044 1400.8 34.316 1401.08C34.5933 1401.36 34.732 1401.69 34.732 1402.09C34.732 1402.48 34.5933 1402.82 34.316 1403.11C34.044 1403.39 33.7027 1403.54 33.292 1403.54C32.8867 1403.54 32.5453 1403.39 32.268 1403.11C31.9907 1402.82 31.852 1402.48 31.852 1402.09C31.852 1401.83 31.916 1401.59 32.044 1401.37C32.172 1401.15 32.3453 1400.98 32.564 1400.85C32.7827 1400.72 33.0253 1400.66 33.292 1400.66Z" fill="#747474"/>
<path d="M53.292 1406.16C53.7027 1406.16 54.044 1406.3 54.316 1406.58C54.5933 1406.85 54.732 1407.19 54.732 1407.59C54.732 1407.82 54.6947 1408.06 54.62 1408.3C54.5507 1408.54 54.4387 1408.84 54.284 1409.18L53.06 1411.98H51.684L52.452 1408.78C52.052 1408.5 51.852 1408.1 51.852 1407.58C51.852 1407.18 51.9907 1406.85 52.268 1406.58C52.5453 1406.3 52.8867 1406.16 53.292 1406.16ZM53.292 1400.66C53.7027 1400.66 54.044 1400.8 54.316 1401.08C54.5933 1401.36 54.732 1401.69 54.732 1402.09C54.732 1402.48 54.5933 1402.82 54.316 1403.11C54.044 1403.39 53.7027 1403.54 53.292 1403.54C52.8867 1403.54 52.5453 1403.39 52.268 1403.11C51.9907 1402.82 51.852 1402.48 51.852 1402.09C51.852 1401.83 51.916 1401.59 52.044 1401.37C52.172 1401.15 52.3453 1400.98 52.564 1400.85C52.7827 1400.72 53.0253 1400.66 53.292 1400.66Z" fill="#747474"/>
<path d="M13.292 1425.16C13.7027 1425.16 14.044 1425.3 14.316 1425.58C14.5933 1425.85 14.732 1426.19 14.732 1426.59C14.732 1426.82 14.6947 1427.06 14.62 1427.3C14.5507 1427.54 14.4387 1427.84 14.284 1428.18L13.06 1430.98H11.684L12.452 1427.78C12.052 1427.5 11.852 1427.1 11.852 1426.58C11.852 1426.18 11.9907 1425.85 12.268 1425.58C12.5453 1425.3 12.8867 1425.16 13.292 1425.16ZM13.292 1419.66C13.7027 1419.66 14.044 1419.8 14.316 1420.08C14.5933 1420.36 14.732 1420.69 14.732 1421.09C14.732 1421.48 14.5933 1421.82 14.316 1422.11C14.044 1422.39 13.7027 1422.54 13.292 1422.54C12.8867 1422.54 12.5453 1422.39 12.268 1422.11C11.9907 1421.82 11.852 1421.48 11.852 1421.09C11.852 1420.83 11.916 1420.59 12.044 1420.37C12.172 1420.15 12.3453 1419.98 12.564 1419.85C12.7827 1419.72 13.0253 1419.66 13.292 1419.66Z" fill="#747474"/>
<path d="M33.292 1425.16C33.7027 1425.16 34.044 1425.3 34.316 1425.58C34.5933 1425.85 34.732 1426.19 34.732 1426.59C34.732 1426.82 34.6947 1427.06 34.62 1427.3C34.5507 1427.54 34.4387 1427.84 34.284 1428.18L33.06 1430.98H31.684L32.452 1427.78C32.052 1427.5 31.852 1427.1 31.852 1426.58C31.852 1426.18 31.9907 1425.85 32.268 1425.58C32.5453 1425.3 32.8867 1425.16 33.292 1425.16ZM33.292 1419.66C33.7027 1419.66 34.044 1419.8 34.316 1420.08C34.5933 1420.36 34.732 1420.69 34.732 1421.09C34.732 1421.48 34.5933 1421.82 34.316 1422.11C34.044 1422.39 33.7027 1422.54 33.292 1422.54C32.8867 1422.54 32.5453 1422.39 32.268 1422.11C31.9907 1421.82 31.852 1421.48 31.852 1421.09C31.852 1420.83 31.916 1420.59 32.044 1420.37C32.172 1420.15 32.3453 1419.98 32.564 1419.85C32.7827 1419.72 33.0253 1419.66 33.292 1419.66Z" fill="#747474"/>
<path d="M53.292 1425.16C53.7027 1425.16 54.044 1425.3 54.316 1425.58C54.5933 1425.85 54.732 1426.19 54.732 1426.59C54.732 1426.82 54.6947 1427.06 54.62 1427.3C54.5507 1427.54 54.4387 1427.84 54.284 1428.18L53.06 1430.98H51.684L52.452 1427.78C52.052 1427.5 51.852 1427.1 51.852 1426.58C51.852 1426.18 51.9907 1425.85 52.268 1425.58C52.5453 1425.3 52.8867 1425.16 53.292 1425.16ZM53.292 1419.66C53.7027 1419.66 54.044 1419.8 54.316 1420.08C54.5933 1420.36 54.732 1420.69 54.732 1421.09C54.732 1421.48 54.5933 1421.82 54.316 1422.11C54.044 1422.39 53.7027 1422.54 53.292 1422.54C52.8867 1422.54 52.5453 1422.39 52.268 1422.11C51.9907 1421.82 51.852 1421.48 51.852 1421.09C51.852 1420.83 51.916 1420.59 52.044 1420.37C52.172 1420.15 52.3453 1419.98 52.564 1419.85C52.7827 1419.72 53.0253 1419.66 53.292 1419.66Z" fill="#747474"/>
<g clip-path="url(#clip0_97_368)">
<path d="M206.988 2186.83C207.781 2186.62 208.512 2186.71 209.182 2187.1C209.862 2187.49 210.306 2188.08 210.514 2188.85C210.633 2189.29 210.684 2189.77 210.667 2190.28C210.658 2190.78 210.594 2191.41 210.476 2192.16L209.568 2198.2L206.91 2198.91L206.726 2192.32C205.809 2191.99 205.216 2191.33 204.947 2190.33C204.739 2189.56 204.833 2188.84 205.227 2188.17C205.618 2187.49 206.205 2187.04 206.988 2186.83ZM204.127 2176.2C204.92 2175.99 205.653 2176.08 206.325 2176.49C207.005 2176.88 207.447 2177.46 207.652 2178.22C207.857 2178.98 207.767 2179.71 207.381 2180.41C207.003 2181.1 206.417 2181.55 205.624 2181.76C204.841 2181.97 204.109 2181.88 203.426 2181.48C202.741 2181.07 202.295 2180.48 202.09 2179.72C201.954 2179.21 201.953 2178.71 202.087 2178.23C202.22 2177.74 202.465 2177.31 202.821 2176.95C203.176 2176.59 203.612 2176.34 204.127 2176.2Z" fill="#747474"/>
<path d="M226.301 2181.63C227.094 2181.42 227.825 2181.51 228.495 2181.9C229.174 2182.3 229.618 2182.88 229.826 2183.65C229.945 2184.09 229.997 2184.57 229.98 2185.08C229.971 2185.58 229.907 2186.21 229.789 2186.96L228.88 2193L226.223 2193.72L226.038 2187.12C225.122 2186.79 224.529 2186.13 224.26 2185.13C224.052 2184.36 224.145 2183.64 224.539 2182.97C224.931 2182.29 225.518 2181.84 226.301 2181.63ZM223.439 2171C224.233 2170.79 224.965 2170.89 225.638 2171.29C226.317 2171.68 226.76 2172.26 226.965 2173.02C227.17 2173.78 227.08 2174.51 226.694 2175.21C226.315 2175.9 225.73 2176.35 224.937 2176.57C224.154 2176.78 223.421 2176.68 222.739 2176.28C222.053 2175.87 221.608 2175.28 221.403 2174.52C221.267 2174.01 221.266 2173.52 221.399 2173.03C221.533 2172.54 221.778 2172.11 222.133 2171.75C222.489 2171.39 222.924 2171.14 223.439 2171Z" fill="#747474"/>
<path d="M245.613 2176.43C246.406 2176.22 247.138 2176.31 247.807 2176.71C248.487 2177.1 248.931 2177.68 249.139 2178.45C249.258 2178.89 249.309 2179.37 249.293 2179.88C249.283 2180.38 249.22 2181.01 249.101 2181.76L248.193 2187.8L245.535 2188.52L245.351 2181.92C244.434 2181.6 243.842 2180.93 243.573 2179.93C243.365 2179.16 243.458 2178.44 243.852 2177.77C244.243 2177.09 244.831 2176.65 245.613 2176.43ZM242.752 2165.8C243.545 2165.59 244.278 2165.69 244.95 2166.09C245.63 2166.48 246.072 2167.06 246.278 2167.82C246.483 2168.58 246.392 2169.32 246.006 2170.02C245.628 2170.7 245.042 2171.15 244.249 2171.37C243.466 2171.58 242.734 2171.48 242.051 2171.08C241.366 2170.67 240.921 2170.08 240.716 2169.32C240.58 2168.81 240.579 2168.32 240.712 2167.83C240.846 2167.34 241.09 2166.91 241.446 2166.55C241.802 2166.19 242.237 2165.94 242.752 2165.8Z" fill="#747474"/>
<path d="M264.926 2171.24C265.719 2171.02 266.45 2171.11 267.12 2171.51C267.799 2171.9 268.243 2172.48 268.451 2173.25C268.57 2173.7 268.622 2174.17 268.605 2174.69C268.596 2175.19 268.532 2175.81 268.414 2176.56L267.505 2182.6L264.848 2183.32L264.664 2176.72C263.747 2176.4 263.154 2175.73 262.885 2174.73C262.677 2173.96 262.77 2173.24 263.164 2172.57C263.556 2171.89 264.143 2171.45 264.926 2171.24ZM262.065 2160.61C262.858 2160.39 263.59 2160.49 264.263 2160.89C264.942 2161.28 265.385 2161.86 265.59 2162.62C265.795 2163.39 265.705 2164.12 265.319 2164.82C264.941 2165.5 264.355 2165.95 263.562 2166.17C262.779 2166.38 262.046 2166.28 261.364 2165.88C260.678 2165.47 260.233 2164.88 260.028 2164.12C259.892 2163.62 259.891 2163.12 260.025 2162.63C260.158 2162.14 260.403 2161.72 260.758 2161.36C261.114 2160.99 261.55 2160.75 262.065 2160.61Z" fill="#747474"/>
</g>
<g clip-path="url(#clip1_97_368)">
<path d="M211.927 2205.18C212.72 2204.96 213.451 2205.06 214.12 2205.45C214.8 2205.84 215.244 2206.42 215.452 2207.2C215.571 2207.64 215.623 2208.12 215.606 2208.63C215.597 2209.13 215.533 2209.75 215.414 2210.5L214.506 2216.55L211.849 2217.26L211.664 2210.67C210.748 2210.34 210.155 2209.68 209.886 2208.68C209.678 2207.9 209.771 2207.18 210.165 2206.51C210.557 2205.83 211.144 2205.39 211.927 2205.18ZM209.065 2194.55C209.858 2194.34 210.591 2194.43 211.263 2194.84C211.943 2195.23 212.386 2195.8 212.591 2196.57C212.796 2197.33 212.706 2198.06 212.32 2198.76C211.941 2199.45 211.356 2199.9 210.562 2200.11C209.78 2200.32 209.047 2200.23 208.364 2199.82C207.679 2199.41 207.234 2198.82 207.029 2198.06C206.893 2197.56 206.892 2197.06 207.025 2196.57C207.159 2196.08 207.403 2195.66 207.759 2195.3C208.115 2194.94 208.55 2194.69 209.065 2194.55Z" fill="#747474"/>
<path d="M231.239 2199.98C232.032 2199.77 232.764 2199.86 233.433 2200.25C234.113 2200.64 234.557 2201.22 234.765 2202C234.884 2202.44 234.935 2202.92 234.918 2203.43C234.909 2203.93 234.846 2204.55 234.727 2205.3L233.819 2211.35L231.161 2212.06L230.977 2205.47C230.06 2205.14 229.467 2204.48 229.198 2203.48C228.991 2202.71 229.084 2201.99 229.478 2201.32C229.869 2200.64 230.456 2200.19 231.239 2199.98ZM228.378 2189.35C229.171 2189.14 229.904 2189.23 230.576 2189.64C231.256 2190.03 231.698 2190.61 231.903 2191.37C232.109 2192.13 232.018 2192.86 231.632 2193.56C231.254 2194.25 230.668 2194.7 229.875 2194.91C229.092 2195.12 228.36 2195.03 227.677 2194.63C226.992 2194.21 226.547 2193.63 226.341 2192.86C226.206 2192.36 226.204 2191.86 226.338 2191.37C226.471 2190.89 226.716 2190.46 227.072 2190.1C227.428 2189.74 227.863 2189.49 228.378 2189.35Z" fill="#747474"/>
<path d="M250.552 2194.78C251.345 2194.57 252.076 2194.66 252.746 2195.05C253.425 2195.44 253.869 2196.03 254.077 2196.8C254.196 2197.24 254.248 2197.72 254.231 2198.23C254.222 2198.73 254.158 2199.36 254.04 2200.11L253.131 2206.15L250.474 2206.87L250.289 2200.27C249.373 2199.94 248.78 2199.28 248.511 2198.28C248.303 2197.51 248.396 2196.79 248.79 2196.12C249.182 2195.44 249.769 2194.99 250.552 2194.78ZM247.691 2184.15C248.484 2183.94 249.216 2184.03 249.889 2184.44C250.568 2184.83 251.011 2185.41 251.216 2186.17C251.421 2186.93 251.331 2187.66 250.945 2188.36C250.567 2189.05 249.981 2189.5 249.188 2189.71C248.405 2189.92 247.672 2189.83 246.99 2189.43C246.304 2189.02 245.859 2188.43 245.654 2187.67C245.518 2187.16 245.517 2186.66 245.651 2186.18C245.784 2185.69 246.029 2185.26 246.384 2184.9C246.74 2184.54 247.176 2184.29 247.691 2184.15Z" fill="#747474"/>
<path d="M269.864 2189.58C270.657 2189.37 271.389 2189.46 272.058 2189.85C272.738 2190.25 273.182 2190.83 273.39 2191.6C273.509 2192.04 273.56 2192.52 273.544 2193.03C273.534 2193.53 273.471 2194.16 273.352 2194.91L272.444 2200.95L269.786 2201.67L269.602 2195.07C268.685 2194.74 268.093 2194.08 267.824 2193.08C267.616 2192.31 267.709 2191.59 268.103 2190.92C268.494 2190.24 269.082 2189.79 269.864 2189.58ZM267.003 2178.95C267.796 2178.74 268.529 2178.84 269.201 2179.24C269.881 2179.63 270.323 2180.21 270.529 2180.97C270.734 2181.73 270.643 2182.46 270.257 2183.16C269.879 2183.85 269.293 2184.3 268.5 2184.52C267.717 2184.73 266.985 2184.63 266.302 2184.23C265.617 2183.82 265.172 2183.23 264.966 2182.47C264.831 2181.96 264.829 2181.47 264.963 2180.98C265.097 2180.49 265.341 2180.06 265.697 2179.7C266.053 2179.34 266.488 2179.09 267.003 2178.95Z" fill="#747474"/>
</g>
<g clip-path="url(#clip2_97_368)">
<path d="M101.578 3023.19C102.372 3022.97 103.103 3023.06 103.772 3023.46C104.452 3023.85 104.896 3024.43 105.104 3025.2C105.223 3025.65 105.274 3026.13 105.258 3026.64C105.249 3027.14 105.185 3027.76 105.066 3028.51L104.158 3034.56L101.501 3035.27L101.316 3028.68C100.399 3028.35 99.8066 3027.69 99.5377 3026.69C99.3297 3025.91 99.4229 3025.19 99.8171 3024.52C100.209 3023.84 100.796 3023.4 101.578 3023.19ZM98.7172 3012.56C99.5103 3012.34 100.243 3012.44 100.915 3012.84C101.595 3013.24 102.037 3013.81 102.243 3014.57C102.448 3015.34 102.357 3016.07 101.972 3016.77C101.593 3017.46 101.007 3017.91 100.214 3018.12C99.4316 3018.33 98.6989 3018.24 98.0163 3017.83C97.331 3017.42 96.8858 3016.83 96.6806 3016.07C96.5448 3015.57 96.5436 3015.07 96.6771 3014.58C96.8106 3014.09 97.0553 3013.67 97.4111 3013.31C97.7668 3012.95 98.2022 3012.7 98.7172 3012.56Z" fill="#747474"/>
<path d="M120.891 3017.99C121.684 3017.78 122.415 3017.87 123.085 3018.26C123.765 3018.65 124.209 3019.23 124.416 3020.01C124.536 3020.45 124.587 3020.93 124.57 3021.44C124.561 3021.94 124.497 3022.56 124.379 3023.31L123.471 3029.36L120.813 3030.07L120.629 3023.48C119.712 3023.15 119.119 3022.49 118.85 3021.49C118.642 3020.72 118.735 3019.99 119.13 3019.32C119.521 3018.64 120.108 3018.2 120.891 3017.99ZM118.03 3007.36C118.823 3007.15 119.556 3007.24 120.228 3007.65C120.908 3008.04 121.35 3008.61 121.555 3009.38C121.76 3010.14 121.67 3010.87 121.284 3011.57C120.906 3012.26 120.32 3012.71 119.527 3012.92C118.744 3013.13 118.011 3013.04 117.329 3012.63C116.644 3012.22 116.198 3011.64 115.993 3010.87C115.857 3010.37 115.856 3009.87 115.99 3009.38C116.123 3008.89 116.368 3008.47 116.724 3008.11C117.079 3007.75 117.515 3007.5 118.03 3007.36Z" fill="#747474"/>
<path d="M140.204 3012.79C140.997 3012.58 141.728 3012.67 142.397 3013.06C143.077 3013.45 143.521 3014.03 143.729 3014.81C143.848 3015.25 143.9 3015.73 143.883 3016.24C143.874 3016.74 143.81 3017.37 143.691 3018.11L142.783 3024.16L140.126 3024.87L139.941 3018.28C139.025 3017.95 138.432 3017.29 138.163 3016.29C137.955 3015.52 138.048 3014.8 138.442 3014.13C138.834 3013.45 139.421 3013 140.204 3012.79ZM137.342 3002.16C138.135 3001.95 138.868 3002.04 139.54 3002.45C140.22 3002.84 140.663 3003.42 140.868 3004.18C141.073 3004.94 140.983 3005.67 140.597 3006.37C140.218 3007.06 139.633 3007.51 138.84 3007.72C138.057 3007.93 137.324 3007.84 136.642 3007.44C135.956 3007.02 135.511 3006.44 135.306 3005.67C135.17 3005.17 135.169 3004.67 135.302 3004.18C135.436 3003.7 135.68 3003.27 136.036 3002.91C136.392 3002.55 136.827 3002.3 137.342 3002.16Z" fill="#747474"/>
<path d="M159.516 3007.59C160.309 3007.38 161.041 3007.47 161.71 3007.86C162.39 3008.25 162.834 3008.84 163.042 3009.61C163.161 3010.05 163.212 3010.53 163.195 3011.04C163.186 3011.54 163.123 3012.17 163.004 3012.92L162.096 3018.96L159.438 3019.68L159.254 3013.08C158.337 3012.75 157.744 3012.09 157.475 3011.09C157.268 3010.32 157.361 3009.6 157.755 3008.93C158.146 3008.25 158.733 3007.8 159.516 3007.59ZM156.655 2996.96C157.448 2996.75 158.181 2996.84 158.853 2997.25C159.533 2997.64 159.975 2998.22 160.18 2998.98C160.386 2999.74 160.295 3000.47 159.909 3001.17C159.531 3001.86 158.945 3002.31 158.152 3002.52C157.369 3002.74 156.637 3002.64 155.954 3002.24C155.269 3001.83 154.824 3001.24 154.618 3000.48C154.483 2999.97 154.481 2999.48 154.615 2998.99C154.748 2998.5 154.993 2998.07 155.349 2997.71C155.705 2997.35 156.14 2997.1 156.655 2996.96Z" fill="#747474"/>
</g>
<g clip-path="url(#clip3_97_368)">
<path d="M106.517 3041.53C107.31 3041.32 108.041 3041.41 108.711 3041.81C109.391 3042.2 109.834 3042.78 110.042 3043.55C110.162 3043.99 110.213 3044.47 110.196 3044.98C110.187 3045.48 110.123 3046.11 110.005 3046.86L109.096 3052.9L106.439 3053.62L106.255 3047.02C105.338 3046.7 104.745 3046.03 104.476 3045.03C104.268 3044.26 104.361 3043.54 104.756 3042.87C105.147 3042.19 105.734 3041.75 106.517 3041.53ZM103.656 3030.9C104.449 3030.69 105.182 3030.79 105.854 3031.19C106.534 3031.58 106.976 3032.16 107.181 3032.92C107.386 3033.68 107.296 3034.42 106.91 3035.12C106.532 3035.8 105.946 3036.25 105.153 3036.47C104.37 3036.68 103.637 3036.58 102.955 3036.18C102.27 3035.77 101.824 3035.18 101.619 3034.42C101.483 3033.91 101.482 3033.42 101.616 3032.93C101.749 3032.44 101.994 3032.01 102.35 3031.65C102.705 3031.29 103.141 3031.04 103.656 3030.9Z" fill="#747474"/>
<path d="M125.83 3036.34C126.623 3036.12 127.354 3036.21 128.023 3036.61C128.703 3037 129.147 3037.58 129.355 3038.35C129.474 3038.8 129.526 3039.27 129.509 3039.79C129.5 3040.29 129.436 3040.91 129.317 3041.66L128.409 3047.7L125.752 3048.42L125.567 3041.82C124.651 3041.5 124.058 3040.83 123.789 3039.83C123.581 3039.06 123.674 3038.34 124.068 3037.67C124.46 3036.99 125.047 3036.55 125.83 3036.34ZM122.968 3025.71C123.761 3025.49 124.494 3025.59 125.166 3025.99C125.846 3026.38 126.289 3026.96 126.494 3027.72C126.699 3028.49 126.609 3029.22 126.223 3029.92C125.844 3030.6 125.259 3031.05 124.466 3031.27C123.683 3031.48 122.95 3031.38 122.267 3030.98C121.582 3030.57 121.137 3029.98 120.932 3029.22C120.796 3028.72 120.795 3028.22 120.928 3027.73C121.062 3027.24 121.306 3026.82 121.662 3026.46C122.018 3026.09 122.453 3025.84 122.968 3025.71Z" fill="#747474"/>
<path d="M145.142 3031.14C145.935 3030.92 146.667 3031.01 147.336 3031.41C148.016 3031.8 148.46 3032.38 148.668 3033.15C148.787 3033.6 148.838 3034.08 148.821 3034.59C148.812 3035.09 148.748 3035.71 148.63 3036.46L147.722 3042.51L145.064 3043.22L144.88 3036.63C143.963 3036.3 143.37 3035.64 143.101 3034.64C142.893 3033.86 142.987 3033.14 143.381 3032.47C143.772 3031.79 144.359 3031.35 145.142 3031.14ZM142.281 3020.51C143.074 3020.29 143.807 3020.39 144.479 3020.79C145.159 3021.19 145.601 3021.76 145.806 3022.52C146.012 3023.29 145.921 3024.02 145.535 3024.72C145.157 3025.41 144.571 3025.86 143.778 3026.07C142.995 3026.28 142.263 3026.18 141.58 3025.78C140.895 3025.37 140.449 3024.78 140.244 3024.02C140.108 3023.52 140.107 3023.02 140.241 3022.53C140.374 3022.04 140.619 3021.62 140.975 3021.26C141.331 3020.9 141.766 3020.65 142.281 3020.51Z" fill="#747474"/>
<path d="M164.455 3025.94C165.248 3025.73 165.979 3025.82 166.649 3026.21C167.328 3026.6 167.772 3027.18 167.98 3027.96C168.099 3028.4 168.151 3028.88 168.134 3029.39C168.125 3029.89 168.061 3030.51 167.943 3031.26L167.034 3037.31L164.377 3038.02L164.192 3031.43C163.276 3031.1 162.683 3030.44 162.414 3029.44C162.206 3028.67 162.299 3027.94 162.693 3027.27C163.085 3026.59 163.672 3026.15 164.455 3025.94ZM161.594 3015.31C162.387 3015.1 163.119 3015.19 163.792 3015.6C164.471 3015.99 164.914 3016.56 165.119 3017.33C165.324 3018.09 165.234 3018.82 164.848 3019.52C164.47 3020.21 163.884 3020.66 163.091 3020.87C162.308 3021.08 161.575 3020.99 160.893 3020.58C160.207 3020.17 159.762 3019.59 159.557 3018.82C159.421 3018.32 159.42 3017.82 159.553 3017.33C159.687 3016.84 159.932 3016.42 160.287 3016.06C160.643 3015.7 161.079 3015.45 161.594 3015.31Z" fill="#747474"/>
</g>
<g clip-path="url(#clip4_97_368)">
<path d="M867.579 2974.19C868.372 2973.97 869.103 2974.06 869.772 2974.46C870.452 2974.85 870.896 2975.43 871.104 2976.2C871.223 2976.65 871.274 2977.13 871.258 2977.64C871.249 2978.14 871.185 2978.76 871.066 2979.51L870.158 2985.56L867.501 2986.27L867.316 2979.68C866.4 2979.35 865.807 2978.69 865.538 2977.69C865.33 2976.91 865.423 2976.19 865.817 2975.52C866.209 2974.84 866.796 2974.4 867.579 2974.19ZM864.717 2963.56C865.51 2963.34 866.243 2963.44 866.915 2963.84C867.595 2964.24 868.038 2964.81 868.243 2965.57C868.448 2966.34 868.358 2967.07 867.972 2967.77C867.593 2968.46 867.008 2968.91 866.214 2969.12C865.432 2969.33 864.699 2969.24 864.016 2968.83C863.331 2968.42 862.886 2967.83 862.681 2967.07C862.545 2966.57 862.544 2966.07 862.677 2965.58C862.811 2965.09 863.055 2964.67 863.411 2964.31C863.767 2963.95 864.202 2963.7 864.717 2963.56Z" fill="#747474"/>
<path d="M886.891 2968.99C887.684 2968.78 888.416 2968.87 889.085 2969.26C889.765 2969.65 890.209 2970.23 890.417 2971.01C890.536 2971.45 890.587 2971.93 890.57 2972.44C890.561 2972.94 890.497 2973.56 890.379 2974.31L889.471 2980.36L886.813 2981.07L886.629 2974.48C885.712 2974.15 885.119 2973.49 884.85 2972.49C884.642 2971.72 884.736 2970.99 885.13 2970.32C885.521 2969.64 886.108 2969.2 886.891 2968.99ZM884.03 2958.36C884.823 2958.15 885.556 2958.24 886.228 2958.65C886.908 2959.04 887.35 2959.61 887.555 2960.38C887.761 2961.14 887.67 2961.87 887.284 2962.57C886.906 2963.26 886.32 2963.71 885.527 2963.92C884.744 2964.13 884.012 2964.04 883.329 2963.63C882.644 2963.22 882.199 2962.64 881.993 2961.87C881.857 2961.37 881.856 2960.87 881.99 2960.38C882.123 2959.89 882.368 2959.47 882.724 2959.11C883.08 2958.75 883.515 2958.5 884.03 2958.36Z" fill="#747474"/>
<path d="M906.204 2963.79C906.997 2963.58 907.728 2963.67 908.398 2964.06C909.077 2964.45 909.521 2965.03 909.729 2965.81C909.848 2966.25 909.9 2966.73 909.883 2967.24C909.874 2967.74 909.81 2968.37 909.692 2969.11L908.783 2975.16L906.126 2975.87L905.941 2969.28C905.025 2968.95 904.432 2968.29 904.163 2967.29C903.955 2966.52 904.048 2965.8 904.442 2965.13C904.834 2964.45 905.421 2964 906.204 2963.79ZM903.343 2953.16C904.136 2952.95 904.868 2953.04 905.541 2953.45C906.22 2953.84 906.663 2954.42 906.868 2955.18C907.073 2955.94 906.983 2956.67 906.597 2957.37C906.219 2958.06 905.633 2958.51 904.84 2958.72C904.057 2958.93 903.324 2958.84 902.642 2958.44C901.956 2958.02 901.511 2957.44 901.306 2956.67C901.17 2956.17 901.169 2955.67 901.302 2955.18C901.436 2954.7 901.681 2954.27 902.036 2953.91C902.392 2953.55 902.828 2953.3 903.343 2953.16Z" fill="#747474"/>
<path d="M925.516 2958.59C926.309 2958.38 927.041 2958.47 927.71 2958.86C928.39 2959.25 928.834 2959.84 929.042 2960.61C929.161 2961.05 929.212 2961.53 929.196 2962.04C929.186 2962.54 929.123 2963.17 929.004 2963.92L928.096 2969.96L925.438 2970.68L925.254 2964.08C924.337 2963.75 923.744 2963.09 923.476 2962.09C923.268 2961.32 923.361 2960.6 923.755 2959.93C924.146 2959.25 924.733 2958.8 925.516 2958.59ZM922.655 2947.96C923.448 2947.75 924.181 2947.84 924.853 2948.25C925.533 2948.64 925.975 2949.22 926.18 2949.98C926.386 2950.74 926.295 2951.47 925.909 2952.17C925.531 2952.86 924.945 2953.31 924.152 2953.52C923.369 2953.74 922.637 2953.64 921.954 2953.24C921.269 2952.83 920.824 2952.24 920.618 2951.48C920.483 2950.97 920.481 2950.48 920.615 2949.99C920.749 2949.5 920.993 2949.07 921.349 2948.71C921.705 2948.35 922.14 2948.1 922.655 2947.96Z" fill="#747474"/>
</g>
<g clip-path="url(#clip5_97_368)">
<path d="M872.517 2992.53C873.31 2992.32 874.041 2992.41 874.711 2992.81C875.391 2993.2 875.835 2993.78 876.042 2994.55C876.162 2994.99 876.213 2995.47 876.196 2995.98C876.187 2996.48 876.123 2997.11 876.005 2997.86L875.097 3003.9L872.439 3004.62L872.255 2998.02C871.338 2997.7 870.745 2997.03 870.476 2996.03C870.268 2995.26 870.361 2994.54 870.756 2993.87C871.147 2993.19 871.734 2992.75 872.517 2992.53ZM869.656 2981.9C870.449 2981.69 871.182 2981.79 871.854 2982.19C872.534 2982.58 872.976 2983.16 873.181 2983.92C873.386 2984.68 873.296 2985.42 872.91 2986.12C872.532 2986.8 871.946 2987.25 871.153 2987.47C870.37 2987.68 869.637 2987.58 868.955 2987.18C868.27 2986.77 867.824 2986.18 867.619 2985.42C867.483 2984.91 867.482 2984.42 867.616 2983.93C867.749 2983.44 867.994 2983.01 868.35 2982.65C868.705 2982.29 869.141 2982.04 869.656 2981.9Z" fill="#747474"/>
<path d="M891.83 2987.34C892.623 2987.12 893.354 2987.21 894.024 2987.61C894.703 2988 895.147 2988.58 895.355 2989.35C895.474 2989.8 895.526 2990.27 895.509 2990.79C895.5 2991.29 895.436 2991.91 895.317 2992.66L894.409 2998.7L891.752 2999.42L891.567 2992.82C890.651 2992.5 890.058 2991.83 889.789 2990.83C889.581 2990.06 889.674 2989.34 890.068 2988.67C890.46 2987.99 891.047 2987.55 891.83 2987.34ZM888.968 2976.71C889.762 2976.49 890.494 2976.59 891.166 2976.99C891.846 2977.38 892.289 2977.96 892.494 2978.72C892.699 2979.49 892.609 2980.22 892.223 2980.92C891.844 2981.6 891.259 2982.05 890.466 2982.27C889.683 2982.48 888.95 2982.38 888.268 2981.98C887.582 2981.57 887.137 2980.98 886.932 2980.22C886.796 2979.72 886.795 2979.22 886.928 2978.73C887.062 2978.24 887.307 2977.82 887.662 2977.46C888.018 2977.09 888.453 2976.84 888.968 2976.71Z" fill="#747474"/>
<path d="M911.142 2982.14C911.935 2981.92 912.667 2982.01 913.336 2982.41C914.016 2982.8 914.46 2983.38 914.668 2984.15C914.787 2984.6 914.838 2985.08 914.822 2985.59C914.812 2986.09 914.749 2986.71 914.63 2987.46L913.722 2993.51L911.064 2994.22L910.88 2987.63C909.963 2987.3 909.37 2986.64 909.102 2985.64C908.894 2984.86 908.987 2984.14 909.381 2983.47C909.772 2982.79 910.359 2982.35 911.142 2982.14ZM908.281 2971.51C909.074 2971.29 909.807 2971.39 910.479 2971.79C911.159 2972.19 911.601 2972.76 911.806 2973.52C912.012 2974.29 911.921 2975.02 911.535 2975.72C911.157 2976.41 910.571 2976.86 909.778 2977.07C908.995 2977.28 908.263 2977.18 907.58 2976.78C906.895 2976.37 906.45 2975.78 906.244 2975.02C906.109 2974.52 906.107 2974.02 906.241 2973.53C906.374 2973.04 906.619 2972.62 906.975 2972.26C907.331 2971.9 907.766 2971.65 908.281 2971.51Z" fill="#747474"/>
<path d="M930.455 2976.94C931.248 2976.73 931.979 2976.82 932.649 2977.21C933.328 2977.6 933.772 2978.18 933.98 2978.96C934.099 2979.4 934.151 2979.88 934.134 2980.39C934.125 2980.89 934.061 2981.51 933.943 2982.26L933.034 2988.31L930.377 2989.02L930.192 2982.43C929.276 2982.1 928.683 2981.44 928.414 2980.44C928.206 2979.67 928.299 2978.94 928.693 2978.27C929.085 2977.59 929.672 2977.15 930.455 2976.94ZM927.594 2966.31C928.387 2966.1 929.119 2966.19 929.792 2966.6C930.471 2966.99 930.914 2967.56 931.119 2968.33C931.324 2969.09 931.234 2969.82 930.848 2970.52C930.47 2971.21 929.884 2971.66 929.091 2971.87C928.308 2972.08 927.575 2971.99 926.893 2971.58C926.207 2971.17 925.762 2970.59 925.557 2969.82C925.421 2969.32 925.42 2968.82 925.553 2968.33C925.687 2967.84 925.932 2967.42 926.287 2967.06C926.643 2966.7 927.079 2966.45 927.594 2966.31Z" fill="#747474"/>
</g>
<path d="M2.292 531.16C2.70267 531.16 3.044 531.299 3.316 531.576C3.59333 531.853 3.732 532.192 3.732 532.592C3.732 532.821 3.69467 533.059 3.62 533.304C3.55067 533.544 3.43867 533.837 3.284 534.184L2.06 536.984H0.684L1.452 533.776C1.052 533.499 0.852 533.101 0.852 532.584C0.852 532.184 0.990667 531.848 1.268 531.576C1.54533 531.299 1.88667 531.16 2.292 531.16ZM2.292 525.656C2.70267 525.656 3.044 525.797 3.316 526.08C3.59333 526.357 3.732 526.693 3.732 527.088C3.732 527.483 3.59333 527.824 3.316 528.112C3.044 528.395 2.70267 528.536 2.292 528.536C1.88667 528.536 1.54533 528.395 1.268 528.112C0.990667 527.824 0.852 527.483 0.852 527.088C0.852 526.827 0.916 526.587 1.044 526.368C1.172 526.149 1.34533 525.976 1.564 525.848C1.78267 525.72 2.02533 525.656 2.292 525.656Z" fill="#747474"/>
<path d="M22.292 531.16C22.7027 531.16 23.044 531.299 23.316 531.576C23.5933 531.853 23.732 532.192 23.732 532.592C23.732 532.821 23.6947 533.059 23.62 533.304C23.5507 533.544 23.4387 533.837 23.284 534.184L22.06 536.984H20.684L21.452 533.776C21.052 533.499 20.852 533.101 20.852 532.584C20.852 532.184 20.9907 531.848 21.268 531.576C21.5453 531.299 21.8867 531.16 22.292 531.16ZM22.292 525.656C22.7027 525.656 23.044 525.797 23.316 526.08C23.5933 526.357 23.732 526.693 23.732 527.088C23.732 527.483 23.5933 527.824 23.316 528.112C23.044 528.395 22.7027 528.536 22.292 528.536C21.8867 528.536 21.5453 528.395 21.268 528.112C20.9907 527.824 20.852 527.483 20.852 527.088C20.852 526.827 20.916 526.587 21.044 526.368C21.172 526.149 21.3453 525.976 21.564 525.848C21.7827 525.72 22.0253 525.656 22.292 525.656Z" fill="#747474"/>
<path d="M2.292 550.16C2.70267 550.16 3.044 550.299 3.316 550.576C3.59333 550.853 3.732 551.192 3.732 551.592C3.732 551.821 3.69467 552.059 3.62 552.304C3.55067 552.544 3.43867 552.837 3.284 553.184L2.06 555.984H0.684L1.452 552.776C1.052 552.499 0.852 552.101 0.852 551.584C0.852 551.184 0.990667 550.848 1.268 550.576C1.54533 550.299 1.88667 550.16 2.292 550.16ZM2.292 544.656C2.70267 544.656 3.044 544.797 3.316 545.08C3.59333 545.357 3.732 545.693 3.732 546.088C3.732 546.483 3.59333 546.824 3.316 547.112C3.044 547.395 2.70267 547.536 2.292 547.536C1.88667 547.536 1.54533 547.395 1.268 547.112C0.990667 546.824 0.852 546.483 0.852 546.088C0.852 545.827 0.916 545.587 1.044 545.368C1.172 545.149 1.34533 544.976 1.564 544.848C1.78267 544.72 2.02533 544.656 2.292 544.656Z" fill="#747474"/>
<path d="M22.292 550.16C22.7027 550.16 23.044 550.299 23.316 550.576C23.5933 550.853 23.732 551.192 23.732 551.592C23.732 551.821 23.6947 552.059 23.62 552.304C23.5507 552.544 23.4387 552.837 23.284 553.184L22.06 555.984H20.684L21.452 552.776C21.052 552.499 20.852 552.101 20.852 551.584C20.852 551.184 20.9907 550.848 21.268 550.576C21.5453 550.299 21.8867 550.16 22.292 550.16ZM22.292 544.656C22.7027 544.656 23.044 544.797 23.316 545.08C23.5933 545.357 23.732 545.693 23.732 546.088C23.732 546.483 23.5933 546.824 23.316 547.112C23.044 547.395 22.7027 547.536 22.292 547.536C21.8867 547.536 21.5453 547.395 21.268 547.112C20.9907 546.824 20.852 546.483 20.852 546.088C20.852 545.827 20.916 545.587 21.044 545.368C21.172 545.149 21.3453 544.976 21.564 544.848C21.7827 544.72 22.0253 544.656 22.292 544.656Z" fill="#747474"/>
<rect x="-44.5" y="670.5" width="86" height="123" stroke="#747474" stroke-width="3"/>
<rect x="-44.5" y="1.5" width="86" height="123" stroke="#747474" stroke-width="3"/>
<rect x="-35.5" y="2768.5" width="86" height="123" stroke="#747474" stroke-width="3"/>
<rect x="-56.5" y="3135.5" width="159" height="123" stroke="#747474" stroke-width="3"/>
<rect x="1322.5" y="906.5" width="86" height="300" stroke="#747474" stroke-width="3"/>
<rect x="1304.5" y="2029.5" width="96" height="300" stroke="#747474" stroke-width="3"/>
<rect x="1113.5" y="2484.5" width="395" height="460" stroke="#747474" stroke-width="3"/>
<path d="M30.2389 1030.76L29.7909 1034.16H30.9749V1035.44H29.6149L29.2869 1038H27.7829L28.1189 1035.44H26.0949L25.7589 1038H24.2549L24.5909 1035.44H23.4469V1034.16H24.7589L25.2229 1030.76H24.0389V1029.47H25.3909L25.7189 1026.96H27.2309L26.8789 1029.47H28.9109L29.2469 1026.96H30.7509L30.4069 1029.47H31.5669V1030.76H30.2389ZM26.2629 1034.16H28.2869L28.7429 1030.76H26.7109L26.2629 1034.16Z" fill="#747474"/>
<path d="M42.2389 1030.76L41.7909 1034.16H42.9749V1035.44H41.6149L41.2869 1038H39.7829L40.1189 1035.44H38.0949L37.7589 1038H36.2549L36.5909 1035.44H35.4469V1034.16H36.7589L37.2229 1030.76H36.0389V1029.47H37.3909L37.7189 1026.96H39.2309L38.8789 1029.47H40.9109L41.2469 1026.96H42.7509L42.4069 1029.47H43.5669V1030.76H42.2389ZM38.2629 1034.16H40.2869L40.7429 1030.76H38.7109L38.2629 1034.16Z" fill="#747474"/>
<path d="M54.2389 1030.76L53.7909 1034.16H54.9749V1035.44H53.6149L53.2869 1038H51.7829L52.1189 1035.44H50.0949L49.7589 1038H48.2549L48.5909 1035.44H47.4469V1034.16H48.7589L49.2229 1030.76H48.0389V1029.47H49.3909L49.7189 1026.96H51.2309L50.8789 1029.47H52.9109L53.2469 1026.96H54.7509L54.4069 1029.47H55.5669V1030.76H54.2389ZM50.2629 1034.16H52.2869L52.7429 1030.76H50.7109L50.2629 1034.16Z" fill="#747474"/>
<path d="M66.2389 1030.76L65.7909 1034.16H66.9749V1035.44H65.6149L65.2869 1038H63.7829L64.1189 1035.44H62.0949L61.7589 1038H60.2549L60.5909 1035.44H59.4469V1034.16H60.7589L61.2229 1030.76H60.0389V1029.47H61.3909L61.7189 1026.96H63.2309L62.8789 1029.47H64.9109L65.2469 1026.96H66.7509L66.4069 1029.47H67.5669V1030.76H66.2389ZM62.2629 1034.16H64.2869L64.7429 1030.76H62.7109L62.2629 1034.16Z" fill="#747474"/>
<path d="M30.2389 1045.76L29.7909 1049.16H30.9749V1050.44H29.6149L29.2869 1053H27.7829L28.1189 1050.44H26.0949L25.7589 1053H24.2549L24.5909 1050.44H23.4469V1049.16H24.7589L25.2229 1045.76H24.0389V1044.47H25.3909L25.7189 1041.96H27.2309L26.8789 1044.47H28.9109L29.2469 1041.96H30.7509L30.4069 1044.47H31.5669V1045.76H30.2389ZM26.2629 1049.16H28.2869L28.7429 1045.76H26.7109L26.2629 1049.16Z" fill="#747474"/>
<path d="M42.2389 1045.76L41.7909 1049.16H42.9749V1050.44H41.6149L41.2869 1053H39.7829L40.1189 1050.44H38.0949L37.7589 1053H36.2549L36.5909 1050.44H35.4469V1049.16H36.7589L37.2229 1045.76H36.0389V1044.47H37.3909L37.7189 1041.96H39.2309L38.8789 1044.47H40.9109L41.2469 1041.96H42.7509L42.4069 1044.47H43.5669V1045.76H42.2389ZM38.2629 1049.16H40.2869L40.7429 1045.76H38.7109L38.2629 1049.16Z" fill="#747474"/>
<path d="M54.2389 1045.76L53.7909 1049.16H54.9749V1050.44H53.6149L53.2869 1053H51.7829L52.1189 1050.44H50.0949L49.7589 1053H48.2549L48.5909 1050.44H47.4469V1049.16H48.7589L49.2229 1045.76H48.0389V1044.47H49.3909L49.7189 1041.96H51.2309L50.8789 1044.47H52.9109L53.2469 1041.96H54.7509L54.4069 1044.47H55.5669V1045.76H54.2389ZM50.2629 1049.16H52.2869L52.7429 1045.76H50.7109L50.2629 1049.16Z" fill="#747474"/>
<path d="M66.2389 1045.76L65.7909 1049.16H66.9749V1050.44H65.6149L65.2869 1053H63.7829L64.1189 1050.44H62.0949L61.7589 1053H60.2549L60.5909 1050.44H59.4469V1049.16H60.7589L61.2229 1045.76H60.0389V1044.47H61.3909L61.7189 1041.96H63.2309L62.8789 1044.47H64.9109L65.2469 1041.96H66.7509L66.4069 1044.47H67.5669V1045.76H66.2389ZM62.2629 1049.16H64.2869L64.7429 1045.76H62.7109L62.2629 1049.16Z" fill="#747474"/>
<path d="M1263.24 283.76L1262.79 287.16H1263.98V288.44H1262.62L1262.29 291H1260.78L1261.12 288.44H1259.1L1258.76 291H1257.26L1257.59 288.44H1256.45V287.16H1257.76L1258.22 283.76H1257.04V282.472H1258.39L1258.72 279.96H1260.23L1259.88 282.472H1261.91L1262.25 279.96H1263.75L1263.41 282.472H1264.57V283.76H1263.24ZM1259.26 287.16H1261.29L1261.74 283.76H1259.71L1259.26 287.16Z" fill="#747474"/>
<path d="M1275.24 283.76L1274.79 287.16H1275.98V288.44H1274.62L1274.29 291H1272.78L1273.12 288.44H1271.1L1270.76 291H1269.26L1269.59 288.44H1268.45V287.16H1269.76L1270.22 283.76H1269.04V282.472H1270.39L1270.72 279.96H1272.23L1271.88 282.472H1273.91L1274.25 279.96H1275.75L1275.41 282.472H1276.57V283.76H1275.24ZM1271.26 287.16H1273.29L1273.74 283.76H1271.71L1271.26 287.16Z" fill="#747474"/>
<path d="M1287.24 283.76L1286.79 287.16H1287.98V288.44H1286.62L1286.29 291H1284.78L1285.12 288.44H1283.1L1282.76 291H1281.26L1281.59 288.44H1280.45V287.16H1281.76L1282.22 283.76H1281.04V282.472H1282.39L1282.72 279.96H1284.23L1283.88 282.472H1285.91L1286.25 279.96H1287.75L1287.41 282.472H1288.57V283.76H1287.24ZM1283.26 287.16H1285.29L1285.74 283.76H1283.71L1283.26 287.16Z" fill="#747474"/>
<path d="M1299.24 283.76L1298.79 287.16H1299.98V288.44H1298.62L1298.29 291H1296.78L1297.12 288.44H1295.1L1294.76 291H1293.26L1293.59 288.44H1292.45V287.16H1293.76L1294.22 283.76H1293.04V282.472H1294.39L1294.72 279.96H1296.23L1295.88 282.472H1297.91L1298.25 279.96H1299.75L1299.41 282.472H1300.57V283.76H1299.24ZM1295.26 287.16H1297.29L1297.74 283.76H1295.71L1295.26 287.16Z" fill="#747474"/>
<path d="M1263.24 298.76L1262.79 302.16H1263.98V303.44H1262.62L1262.29 306H1260.78L1261.12 303.44H1259.1L1258.76 306H1257.26L1257.59 303.44H1256.45V302.16H1257.76L1258.22 298.76H1257.04V297.472H1258.39L1258.72 294.96H1260.23L1259.88 297.472H1261.91L1262.25 294.96H1263.75L1263.41 297.472H1264.57V298.76H1263.24ZM1259.26 302.16H1261.29L1261.74 298.76H1259.71L1259.26 302.16Z" fill="#747474"/>
<path d="M1275.24 298.76L1274.79 302.16H1275.98V303.44H1274.62L1274.29 306H1272.78L1273.12 303.44H1271.1L1270.76 306H1269.26L1269.59 303.44H1268.45V302.16H1269.76L1270.22 298.76H1269.04V297.472H1270.39L1270.72 294.96H1272.23L1271.88 297.472H1273.91L1274.25 294.96H1275.75L1275.41 297.472H1276.57V298.76H1275.24ZM1271.26 302.16H1273.29L1273.74 298.76H1271.71L1271.26 302.16Z" fill="#747474"/>
<path d="M1287.24 298.76L1286.79 302.16H1287.98V303.44H1286.62L1286.29 306H1284.78L1285.12 303.44H1283.1L1282.76 306H1281.26L1281.59 303.44H1280.45V302.16H1281.76L1282.22 298.76H1281.04V297.472H1282.39L1282.72 294.96H1284.23L1283.88 297.472H1285.91L1286.25 294.96H1287.75L1287.41 297.472H1288.57V298.76H1287.24ZM1283.26 302.16H1285.29L1285.74 298.76H1283.71L1283.26 302.16Z" fill="#747474"/>
<path d="M1299.24 298.76L1298.79 302.16H1299.98V303.44H1298.62L1298.29 306H1296.78L1297.12 303.44H1295.1L1294.76 306H1293.26L1293.59 303.44H1292.45V302.16H1293.76L1294.22 298.76H1293.04V297.472H1294.39L1294.72 294.96H1296.23L1295.88 297.472H1297.91L1298.25 294.96H1299.75L1299.41 297.472H1300.57V298.76H1299.24ZM1295.26 302.16H1297.29L1297.74 298.76H1295.71L1295.26 302.16Z" fill="#747474"/>
<path d="M15.239 2285.76L14.791 2289.16H15.975V2290.44H14.615L14.287 2293H12.783L13.119 2290.44H11.095L10.759 2293H9.255L9.591 2290.44H8.447V2289.16H9.759L10.223 2285.76H9.039V2284.47H10.391L10.719 2281.96H12.231L11.879 2284.47H13.911L14.247 2281.96H15.751L15.407 2284.47H16.567V2285.76H15.239ZM11.263 2289.16H13.287L13.743 2285.76H11.711L11.263 2289.16Z" fill="#747474"/>
<path d="M27.239 2285.76L26.791 2289.16H27.975V2290.44H26.615L26.287 2293H24.783L25.119 2290.44H23.095L22.759 2293H21.255L21.591 2290.44H20.447V2289.16H21.759L22.223 2285.76H21.039V2284.47H22.391L22.719 2281.96H24.231L23.879 2284.47H25.911L26.247 2281.96H27.751L27.407 2284.47H28.567V2285.76H27.239ZM23.263 2289.16H25.287L25.743 2285.76H23.711L23.263 2289.16Z" fill="#747474"/>
<path d="M39.239 2285.76L38.791 2289.16H39.975V2290.44H38.615L38.287 2293H36.783L37.119 2290.44H35.095L34.759 2293H33.255L33.591 2290.44H32.447V2289.16H33.759L34.223 2285.76H33.039V2284.47H34.391L34.719 2281.96H36.231L35.879 2284.47H37.911L38.247 2281.96H39.751L39.407 2284.47H40.567V2285.76H39.239ZM35.263 2289.16H37.287L37.743 2285.76H35.711L35.263 2289.16Z" fill="#747474"/>
<path d="M51.239 2285.76L50.791 2289.16H51.975V2290.44H50.615L50.287 2293H48.783L49.119 2290.44H47.095L46.759 2293H45.255L45.591 2290.44H44.447V2289.16H45.759L46.223 2285.76H45.039V2284.47H46.391L46.719 2281.96H48.231L47.879 2284.47H49.911L50.247 2281.96H51.751L51.407 2284.47H52.567V2285.76H51.239ZM47.263 2289.16H49.287L49.743 2285.76H47.711L47.263 2289.16Z" fill="#747474"/>
<path d="M15.239 2300.76L14.791 2304.16H15.975V2305.44H14.615L14.287 2308H12.783L13.119 2305.44H11.095L10.759 2308H9.255L9.591 2305.44H8.447V2304.16H9.759L10.223 2300.76H9.039V2299.47H10.391L10.719 2296.96H12.231L11.879 2299.47H13.911L14.247 2296.96H15.751L15.407 2299.47H16.567V2300.76H15.239ZM11.263 2304.16H13.287L13.743 2300.76H11.711L11.263 2304.16Z" fill="#747474"/>
<path d="M27.239 2300.76L26.791 2304.16H27.975V2305.44H26.615L26.287 2308H24.783L25.119 2305.44H23.095L22.759 2308H21.255L21.591 2305.44H20.447V2304.16H21.759L22.223 2300.76H21.039V2299.47H22.391L22.719 2296.96H24.231L23.879 2299.47H25.911L26.247 2296.96H27.751L27.407 2299.47H28.567V2300.76H27.239ZM23.263 2304.16H25.287L25.743 2300.76H23.711L23.263 2304.16Z" fill="#747474"/>
<path d="M39.239 2300.76L38.791 2304.16H39.975V2305.44H38.615L38.287 2308H36.783L37.119 2305.44H35.095L34.759 2308H33.255L33.591 2305.44H32.447V2304.16H33.759L34.223 2300.76H33.039V2299.47H34.391L34.719 2296.96H36.231L35.879 2299.47H37.911L38.247 2296.96H39.751L39.407 2299.47H40.567V2300.76H39.239ZM35.263 2304.16H37.287L37.743 2300.76H35.711L35.263 2304.16Z" fill="#747474"/>
<path d="M51.239 2300.76L50.791 2304.16H51.975V2305.44H50.615L50.287 2308H48.783L49.119 2305.44H47.095L46.759 2308H45.255L45.591 2305.44H44.447V2304.16H45.759L46.223 2300.76H45.039V2299.47H46.391L46.719 2296.96H48.231L47.879 2299.47H49.911L50.247 2296.96H51.751L51.407 2299.47H52.567V2300.76H51.239ZM47.263 2304.16H49.287L49.743 2300.76H47.711L47.263 2304.16Z" fill="#747474"/>
<path d="M152.239 2741.76L151.791 2745.16H152.975V2746.44H151.615L151.287 2749H149.783L150.119 2746.44H148.095L147.759 2749H146.255L146.591 2746.44H145.447V2745.16H146.759L147.223 2741.76H146.039V2740.47H147.391L147.719 2737.96H149.231L148.879 2740.47H150.911L151.247 2737.96H152.751L152.407 2740.47H153.567V2741.76H152.239ZM148.263 2745.16H150.287L150.743 2741.76H148.711L148.263 2745.16Z" fill="#747474"/>
<path d="M164.239 2741.76L163.791 2745.16H164.975V2746.44H163.615L163.287 2749H161.783L162.119 2746.44H160.095L159.759 2749H158.255L158.591 2746.44H157.447V2745.16H158.759L159.223 2741.76H158.039V2740.47H159.391L159.719 2737.96H161.231L160.879 2740.47H162.911L163.247 2737.96H164.751L164.407 2740.47H165.567V2741.76H164.239ZM160.263 2745.16H162.287L162.743 2741.76H160.711L160.263 2745.16Z" fill="#747474"/>
<path d="M176.239 2741.76L175.791 2745.16H176.975V2746.44H175.615L175.287 2749H173.783L174.119 2746.44H172.095L171.759 2749H170.255L170.591 2746.44H169.447V2745.16H170.759L171.223 2741.76H170.039V2740.47H171.391L171.719 2737.96H173.231L172.879 2740.47H174.911L175.247 2737.96H176.751L176.407 2740.47H177.567V2741.76H176.239ZM172.263 2745.16H174.287L174.743 2741.76H172.711L172.263 2745.16Z" fill="#747474"/>
<path d="M188.239 2741.76L187.791 2745.16H188.975V2746.44H187.615L187.287 2749H185.783L186.119 2746.44H184.095L183.759 2749H182.255L182.591 2746.44H181.447V2745.16H182.759L183.223 2741.76H182.039V2740.47H183.391L183.719 2737.96H185.231L184.879 2740.47H186.911L187.247 2737.96H188.751L188.407 2740.47H189.567V2741.76H188.239ZM184.263 2745.16H186.287L186.743 2741.76H184.711L184.263 2745.16Z" fill="#747474"/>
<path d="M152.239 2756.76L151.791 2760.16H152.975V2761.44H151.615L151.287 2764H149.783L150.119 2761.44H148.095L147.759 2764H146.255L146.591 2761.44H145.447V2760.16H146.759L147.223 2756.76H146.039V2755.47H147.391L147.719 2752.96H149.231L148.879 2755.47H150.911L151.247 2752.96H152.751L152.407 2755.47H153.567V2756.76H152.239ZM148.263 2760.16H150.287L150.743 2756.76H148.711L148.263 2760.16Z" fill="#747474"/>
<path d="M164.239 2756.76L163.791 2760.16H164.975V2761.44H163.615L163.287 2764H161.783L162.119 2761.44H160.095L159.759 2764H158.255L158.591 2761.44H157.447V2760.16H158.759L159.223 2756.76H158.039V2755.47H159.391L159.719 2752.96H161.231L160.879 2755.47H162.911L163.247 2752.96H164.751L164.407 2755.47H165.567V2756.76H164.239ZM160.263 2760.16H162.287L162.743 2756.76H160.711L160.263 2760.16Z" fill="#747474"/>
<path d="M176.239 2756.76L175.791 2760.16H176.975V2761.44H175.615L175.287 2764H173.783L174.119 2761.44H172.095L171.759 2764H170.255L170.591 2761.44H169.447V2760.16H170.759L171.223 2756.76H170.039V2755.47H171.391L171.719 2752.96H173.231L172.879 2755.47H174.911L175.247 2752.96H176.751L176.407 2755.47H177.567V2756.76H176.239ZM172.263 2760.16H174.287L174.743 2756.76H172.711L172.263 2760.16Z" fill="#747474"/>
<path d="M188.239 2756.76L187.791 2760.16H188.975V2761.44H187.615L187.287 2764H185.783L186.119 2761.44H184.095L183.759 2764H182.255L182.591 2761.44H181.447V2760.16H182.759L183.223 2756.76H182.039V2755.47H183.391L183.719 2752.96H185.231L184.879 2755.47H186.911L187.247 2752.96H188.751L188.407 2755.47H189.567V2756.76H188.239ZM184.263 2760.16H186.287L186.743 2756.76H184.711L184.263 2760.16Z" fill="#747474"/>
<path d="M1114.24 2191.76L1113.79 2195.16H1114.98V2196.44H1113.62L1113.29 2199H1111.78L1112.12 2196.44H1110.1L1109.76 2199H1108.26L1108.59 2196.44H1107.45V2195.16H1108.76L1109.22 2191.76H1108.04V2190.47H1109.39L1109.72 2187.96H1111.23L1110.88 2190.47H1112.91L1113.25 2187.96H1114.75L1114.41 2190.47H1115.57V2191.76H1114.24ZM1110.26 2195.16H1112.29L1112.74 2191.76H1110.71L1110.26 2195.16Z" fill="#747474"/>
<path d="M1126.24 2191.76L1125.79 2195.16H1126.98V2196.44H1125.62L1125.29 2199H1123.78L1124.12 2196.44H1122.1L1121.76 2199H1120.26L1120.59 2196.44H1119.45V2195.16H1120.76L1121.22 2191.76H1120.04V2190.47H1121.39L1121.72 2187.96H1123.23L1122.88 2190.47H1124.91L1125.25 2187.96H1126.75L1126.41 2190.47H1127.57V2191.76H1126.24ZM1122.26 2195.16H1124.29L1124.74 2191.76H1122.71L1122.26 2195.16Z" fill="#747474"/>
<path d="M1138.24 2191.76L1137.79 2195.16H1138.98V2196.44H1137.62L1137.29 2199H1135.78L1136.12 2196.44H1134.1L1133.76 2199H1132.26L1132.59 2196.44H1131.45V2195.16H1132.76L1133.22 2191.76H1132.04V2190.47H1133.39L1133.72 2187.96H1135.23L1134.88 2190.47H1136.91L1137.25 2187.96H1138.75L1138.41 2190.47H1139.57V2191.76H1138.24ZM1134.26 2195.16H1136.29L1136.74 2191.76H1134.71L1134.26 2195.16Z" fill="#747474"/>
<path d="M1150.24 2191.76L1149.79 2195.16H1150.98V2196.44H1149.62L1149.29 2199H1147.78L1148.12 2196.44H1146.1L1145.76 2199H1144.26L1144.59 2196.44H1143.45V2195.16H1144.76L1145.22 2191.76H1144.04V2190.47H1145.39L1145.72 2187.96H1147.23L1146.88 2190.47H1148.91L1149.25 2187.96H1150.75L1150.41 2190.47H1151.57V2191.76H1150.24ZM1146.26 2195.16H1148.29L1148.74 2191.76H1146.71L1146.26 2195.16Z" fill="#747474"/>
<path d="M1114.24 2206.76L1113.79 2210.16H1114.98V2211.44H1113.62L1113.29 2214H1111.78L1112.12 2211.44H1110.1L1109.76 2214H1108.26L1108.59 2211.44H1107.45V2210.16H1108.76L1109.22 2206.76H1108.04V2205.47H1109.39L1109.72 2202.96H1111.23L1110.88 2205.47H1112.91L1113.25 2202.96H1114.75L1114.41 2205.47H1115.57V2206.76H1114.24ZM1110.26 2210.16H1112.29L1112.74 2206.76H1110.71L1110.26 2210.16Z" fill="#747474"/>
<path d="M1126.24 2206.76L1125.79 2210.16H1126.98V2211.44H1125.62L1125.29 2214H1123.78L1124.12 2211.44H1122.1L1121.76 2214H1120.26L1120.59 2211.44H1119.45V2210.16H1120.76L1121.22 2206.76H1120.04V2205.47H1121.39L1121.72 2202.96H1123.23L1122.88 2205.47H1124.91L1125.25 2202.96H1126.75L1126.41 2205.47H1127.57V2206.76H1126.24ZM1122.26 2210.16H1124.29L1124.74 2206.76H1122.71L1122.26 2210.16Z" fill="#747474"/>
<path d="M1138.24 2206.76L1137.79 2210.16H1138.98V2211.44H1137.62L1137.29 2214H1135.78L1136.12 2211.44H1134.1L1133.76 2214H1132.26L1132.59 2211.44H1131.45V2210.16H1132.76L1133.22 2206.76H1132.04V2205.47H1133.39L1133.72 2202.96H1135.23L1134.88 2205.47H1136.91L1137.25 2202.96H1138.75L1138.41 2205.47H1139.57V2206.76H1138.24ZM1134.26 2210.16H1136.29L1136.74 2206.76H1134.71L1134.26 2210.16Z" fill="#747474"/>
<path d="M1150.24 2206.76L1149.79 2210.16H1150.98V2211.44H1149.62L1149.29 2214H1147.78L1148.12 2211.44H1146.1L1145.76 2214H1144.26L1144.59 2211.44H1143.45V2210.16H1144.76L1145.22 2206.76H1144.04V2205.47H1145.39L1145.72 2202.96H1147.23L1146.88 2205.47H1148.91L1149.25 2202.96H1150.75L1150.41 2205.47H1151.57V2206.76H1150.24ZM1146.26 2210.16H1148.29L1148.74 2206.76H1146.71L1146.26 2210.16Z" fill="#747474"/>
<path d="M1217.24 2388.76L1216.79 2392.16H1217.98V2393.44H1216.62L1216.29 2396H1214.78L1215.12 2393.44H1213.1L1212.76 2396H1211.26L1211.59 2393.44H1210.45V2392.16H1211.76L1212.22 2388.76H1211.04V2387.47H1212.39L1212.72 2384.96H1214.23L1213.88 2387.47H1215.91L1216.25 2384.96H1217.75L1217.41 2387.47H1218.57V2388.76H1217.24ZM1213.26 2392.16H1215.29L1215.74 2388.76H1213.71L1213.26 2392.16Z" fill="#747474"/>
<path d="M1229.24 2388.76L1228.79 2392.16H1229.98V2393.44H1228.62L1228.29 2396H1226.78L1227.12 2393.44H1225.1L1224.76 2396H1223.26L1223.59 2393.44H1222.45V2392.16H1223.76L1224.22 2388.76H1223.04V2387.47H1224.39L1224.72 2384.96H1226.23L1225.88 2387.47H1227.91L1228.25 2384.96H1229.75L1229.41 2387.47H1230.57V2388.76H1229.24ZM1225.26 2392.16H1227.29L1227.74 2388.76H1225.71L1225.26 2392.16Z" fill="#747474"/>
<path d="M1241.24 2388.76L1240.79 2392.16H1241.98V2393.44H1240.62L1240.29 2396H1238.78L1239.12 2393.44H1237.1L1236.76 2396H1235.26L1235.59 2393.44H1234.45V2392.16H1235.76L1236.22 2388.76H1235.04V2387.47H1236.39L1236.72 2384.96H1238.23L1237.88 2387.47H1239.91L1240.25 2384.96H1241.75L1241.41 2387.47H1242.57V2388.76H1241.24ZM1237.26 2392.16H1239.29L1239.74 2388.76H1237.71L1237.26 2392.16Z" fill="#747474"/>
<path d="M1253.24 2388.76L1252.79 2392.16H1253.98V2393.44H1252.62L1252.29 2396H1250.78L1251.12 2393.44H1249.1L1248.76 2396H1247.26L1247.59 2393.44H1246.45V2392.16H1247.76L1248.22 2388.76H1247.04V2387.47H1248.39L1248.72 2384.96H1250.23L1249.88 2387.47H1251.91L1252.25 2384.96H1253.75L1253.41 2387.47H1254.57V2388.76H1253.24ZM1249.26 2392.16H1251.29L1251.74 2388.76H1249.71L1249.26 2392.16Z" fill="#747474"/>
<path d="M1217.24 2403.76L1216.79 2407.16H1217.98V2408.44H1216.62L1216.29 2411H1214.78L1215.12 2408.44H1213.1L1212.76 2411H1211.26L1211.59 2408.44H1210.45V2407.16H1211.76L1212.22 2403.76H1211.04V2402.47H1212.39L1212.72 2399.96H1214.23L1213.88 2402.47H1215.91L1216.25 2399.96H1217.75L1217.41 2402.47H1218.57V2403.76H1217.24ZM1213.26 2407.16H1215.29L1215.74 2403.76H1213.71L1213.26 2407.16Z" fill="#747474"/>
<path d="M1229.24 2403.76L1228.79 2407.16H1229.98V2408.44H1228.62L1228.29 2411H1226.78L1227.12 2408.44H1225.1L1224.76 2411H1223.26L1223.59 2408.44H1222.45V2407.16H1223.76L1224.22 2403.76H1223.04V2402.47H1224.39L1224.72 2399.96H1226.23L1225.88 2402.47H1227.91L1228.25 2399.96H1229.75L1229.41 2402.47H1230.57V2403.76H1229.24ZM1225.26 2407.16H1227.29L1227.74 2403.76H1225.71L1225.26 2407.16Z" fill="#747474"/>
<path d="M1241.24 2403.76L1240.79 2407.16H1241.98V2408.44H1240.62L1240.29 2411H1238.78L1239.12 2408.44H1237.1L1236.76 2411H1235.26L1235.59 2408.44H1234.45V2407.16H1235.76L1236.22 2403.76H1235.04V2402.47H1236.39L1236.72 2399.96H1238.23L1237.88 2402.47H1239.91L1240.25 2399.96H1241.75L1241.41 2402.47H1242.57V2403.76H1241.24ZM1237.26 2407.16H1239.29L1239.74 2403.76H1237.71L1237.26 2407.16Z" fill="#747474"/>
<path d="M1253.24 2403.76L1252.79 2407.16H1253.98V2408.44H1252.62L1252.29 2411H1250.78L1251.12 2408.44H1249.1L1248.76 2411H1247.26L1247.59 2408.44H1246.45V2407.16H1247.76L1248.22 2403.76H1247.04V2402.47H1248.39L1248.72 2399.96H1250.23L1249.88 2402.47H1251.91L1252.25 2399.96H1253.75L1253.41 2402.47H1254.57V2403.76H1253.24ZM1249.26 2407.16H1251.29L1251.74 2403.76H1249.71L1249.26 2407.16Z" fill="#747474"/>
<path d="M1254.06 1554.66L1396.81 1558.15L1281.85 1642.84L1254.06 1554.66Z" stroke="#747474"/>
<path d="M1158.73 775.431C1158.3 776.139 1158.52 777.062 1159.23 777.493L1170.75 784.526C1171.46 784.958 1172.38 784.735 1172.81 784.028C1173.24 783.32 1173.02 782.397 1172.31 781.966L1162.07 775.714L1168.32 765.471C1168.75 764.764 1168.53 763.841 1167.82 763.409C1167.12 762.978 1166.19 763.201 1165.76 763.908L1158.73 775.431ZM1436.5 707.767L1159.66 774.755L1160.36 777.671L1437.21 710.683L1436.5 707.767Z" fill="#747474"/>
<path d="M35 1689.5C35 1714.21 17.6349 1734 -3.5 1734C-24.6349 1734 -42 1714.21 -42 1689.5C-42 1664.79 -24.6349 1645 -3.5 1645C17.6349 1645 35 1664.79 35 1689.5Z" stroke="#747474" stroke-width="2"/>
<path d="M52 3448.5C52 3473.21 34.6349 3493 13.5 3493C-7.63487 3493 -25 3473.21 -25 3448.5C-25 3423.79 -7.63487 3404 13.5 3404C34.6349 3404 52 3423.79 52 3448.5Z" stroke="#747474" stroke-width="2"/>
<path d="M-75.5295 2020.66L67.2187 2024.15L-47.7438 2108.84L-75.5295 2020.66Z" stroke="#747474"/>
<path d="M660.471 2605.66L803.219 2609.15L688.256 2693.84L660.471 2605.66Z" stroke="#747474"/>
<path d="M1198.47 3147.66L1341.22 3151.15L1226.26 3235.84L1198.47 3147.66Z" stroke="#747474"/>
<defs>
<clipPath id="clip0_97_368">
<rect width="81" height="24" fill="white" transform="translate(190.41 2164.04) rotate(-15.0655)"/>
</clipPath>
<clipPath id="clip1_97_368">
<rect width="81" height="24" fill="white" transform="translate(195.348 2182.38) rotate(-15.0655)"/>
</clipPath>
<clipPath id="clip2_97_368">
<rect width="81" height="24" fill="white" transform="translate(84.9999 3000.39) rotate(-15.0655)"/>
</clipPath>
<clipPath id="clip3_97_368">
<rect width="81" height="24" fill="white" transform="translate(89.9384 3018.74) rotate(-15.0655)"/>
</clipPath>
<clipPath id="clip4_97_368">
<rect width="81" height="24" fill="white" transform="translate(851 2951.39) rotate(-15.0655)"/>
</clipPath>
<clipPath id="clip5_97_368">
<rect width="81" height="24" fill="white" transform="translate(855.938 2969.74) rotate(-15.0655)"/>
</clipPath>
</defs>
</svg>
