<svg width="90" height="37" viewBox="0 0 90 37" fill="none" xmlns="http://www.w3.org/2000/svg">
<path d="M21.088 24.216C20.1493 24.216 19.344 24.0027 18.672 23.576C18 23.144 17.4853 22.5013 17.128 21.648C16.7707 20.7947 16.592 19.7333 16.592 18.464C16.592 17.52 16.72 16.6907 16.976 15.976C17.232 15.2613 17.584 14.664 18.032 14.184C18.48 13.704 18.992 13.344 19.568 13.104C20.1493 12.8587 20.7627 12.736 21.408 12.736C22.16 12.736 22.7867 12.848 23.288 13.072C23.7947 13.296 24.264 13.608 24.696 14.008L23.656 15.088C23.32 14.7787 22.976 14.552 22.624 14.408C22.2773 14.2587 21.888 14.184 21.456 14.184C21.0667 14.184 20.696 14.2613 20.344 14.416C19.9973 14.5653 19.688 14.808 19.416 15.144C19.144 15.4747 18.928 15.9147 18.768 16.464C18.6133 17.008 18.536 17.6773 18.536 18.472C18.536 19.496 18.6347 20.3253 18.832 20.96C19.0293 21.5893 19.3227 22.048 19.712 22.336C20.1067 22.624 20.5947 22.768 21.176 22.768C21.512 22.768 21.832 22.728 22.136 22.648C22.44 22.568 22.728 22.4533 23 22.304V19.264H21.128L20.928 17.848H24.8V23.2C24.2773 23.4933 23.72 23.736 23.128 23.928C22.5413 24.12 21.8613 24.216 21.088 24.216ZM31.6338 15.552V22.688H33.9298V24H27.3138V22.688H29.8418V16.864H27.3938V15.552H31.6338ZM30.3858 11.416C30.7378 11.416 31.0204 11.5227 31.2338 11.736C31.4524 11.9493 31.5618 12.216 31.5618 12.536C31.5618 12.856 31.4524 13.1253 31.2338 13.344C31.0204 13.5627 30.7378 13.672 30.3858 13.672C30.0444 13.672 29.7644 13.5627 29.5458 13.344C29.3271 13.1253 29.2178 12.856 29.2178 12.536C29.2178 12.216 29.3271 11.9493 29.5458 11.736C29.7644 11.5227 30.0444 11.416 30.3858 11.416ZM43.6675 23.552C43.3582 23.7493 42.9875 23.9093 42.5555 24.032C42.1235 24.1547 41.6728 24.216 41.2035 24.216C40.2222 24.216 39.4755 23.9627 38.9635 23.456C38.4568 22.944 38.2035 22.272 38.2035 21.44V16.856H36.3235V15.552H38.2035V13.664L39.9955 13.448V15.552H42.8435L42.6435 16.856H39.9955V21.424C39.9955 21.8773 40.1075 22.216 40.3315 22.44C40.5608 22.6587 40.9342 22.768 41.4515 22.768C41.7608 22.768 42.0462 22.7307 42.3075 22.656C42.5688 22.5813 42.8062 22.4853 43.0195 22.368L43.6675 23.552ZM47.9973 11.984V16.584C48.3386 16.168 48.7386 15.856 49.1973 15.648C49.6559 15.4347 50.1279 15.328 50.6133 15.328C51.4079 15.328 51.9999 15.5493 52.3893 15.992C52.7786 16.4293 52.9733 17.0453 52.9733 17.84V24H51.1813V18.12C51.1813 17.6133 51.0853 17.2507 50.8933 17.032C50.7013 16.808 50.3919 16.696 49.9653 16.696C49.6986 16.696 49.4426 16.7573 49.1973 16.88C48.9573 16.9973 48.7333 17.152 48.5253 17.344C48.3226 17.536 48.1466 17.7413 47.9973 17.96V24H46.2053V12.176L47.9973 11.984ZM57.591 15.552V21.456C57.591 21.9573 57.6897 22.3147 57.887 22.528C58.0897 22.7413 58.3937 22.848 58.799 22.848C59.183 22.848 59.5537 22.7333 59.911 22.504C60.2683 22.2747 60.551 21.9947 60.759 21.664V15.552H62.551V24H61.007L60.895 22.92C60.5803 23.3413 60.183 23.664 59.703 23.888C59.223 24.1067 58.7323 24.216 58.231 24.216C57.415 24.216 56.8043 23.992 56.399 23.544C55.999 23.0907 55.799 22.4693 55.799 21.68V15.552H57.591ZM67.1848 16.56C67.4781 16.176 67.8194 15.8747 68.2088 15.656C68.6034 15.4373 69.0354 15.328 69.5048 15.328C70.2461 15.328 70.8461 15.512 71.3048 15.88C71.7688 16.2427 72.1074 16.7573 72.3208 17.424C72.5394 18.0853 72.6488 18.864 72.6488 19.76C72.6488 20.6187 72.5208 21.384 72.2648 22.056C72.0088 22.728 71.6301 23.256 71.1288 23.64C70.6328 24.024 70.0194 24.216 69.2888 24.216C68.3448 24.216 67.6034 23.8667 67.0648 23.168L66.9688 24H65.3928V12.16L67.1848 11.96V16.56ZM68.8408 22.848C69.4488 22.848 69.9181 22.6 70.2488 22.104C70.5848 21.608 70.7528 20.8293 70.7528 19.768C70.7528 19.048 70.6861 18.464 70.5528 18.016C70.4194 17.5627 70.2221 17.232 69.9608 17.024C69.7048 16.816 69.3901 16.712 69.0168 16.712C68.6168 16.712 68.2648 16.832 67.9608 17.072C67.6568 17.312 67.3981 17.5947 67.1848 17.92V21.872C67.3821 22.176 67.6194 22.416 67.8968 22.592C68.1794 22.7627 68.4941 22.848 68.8408 22.848Z" fill="#FDFFF7"/>
<rect x="1" y="1" width="88" height="35" stroke="#3A29F5" stroke-width="2"/>
</svg>
